<?xml version="1.0" encoding="UTF-8"?>
<!DOCTYPE svg PUBLIC "-//W3C//DTD SVG 1.1//EN" "http://www.w3.org/Graphics/SVG/1.1/DTD/svg11.dtd">
<svg xmlns="http://www.w3.org/2000/svg" version="1.1" width="18px" height="23px" style="shape-rendering:geometricPrecision; text-rendering:geometricPrecision; image-rendering:optimizeQuality; fill-rule:evenodd; clip-rule:evenodd" xmlns:xlink="http://www.w3.org/1999/xlink">
<g><path style="opacity:1" fill="#000001" d="M 5.5,-0.5 C 6.5,-0.5 7.5,-0.5 8.5,-0.5C 8.5,0.5 8.5,1.5 8.5,2.5C 7.5,2.5 6.5,2.5 5.5,2.5C 5.5,1.5 5.5,0.5 5.5,-0.5 Z"/></g>
<g><path style="opacity:1" fill="#000001" d="M 17.5,4.5 C 17.5,5.16667 17.5,5.83333 17.5,6.5C 16.2058,7.2899 15.0391,8.2899 14,9.5C 12.6667,8.16667 11.3333,6.83333 10,5.5C 9.5,7 9,8.5 8.5,10C 9.56311,12.8975 11.2298,15.3975 13.5,17.5C 12.1431,19.1856 10.8098,20.8523 9.5,22.5C 8.83333,22.5 8.16667,22.5 7.5,22.5C 8.04756,20.6064 9.04756,18.9397 10.5,17.5C 9.85506,16.354 9.02173,15.354 8,14.5C 5.99932,17.3307 3.83265,19.9974 1.5,22.5C 0.833333,22.5 0.166667,22.5 -0.5,22.5C -0.5,21.5 -0.5,20.5 -0.5,19.5C 5.31025,16.2139 6.81025,11.5473 4,5.5C 2.37206,6.81872 2.53873,8.15206 4.5,9.5C 4.16667,9.83333 3.83333,10.1667 3.5,10.5C 2.14819,9.47565 0.814858,8.47565 -0.5,7.5C -0.5,7.16667 -0.5,6.83333 -0.5,6.5C 4.3345,2.53681 9.16783,2.53681 14,6.5C 14.8159,5.17723 15.9826,4.51056 17.5,4.5 Z"/></g>
</svg>
