<?xml version="1.0" encoding="UTF-8"?>
<!DOCTYPE svg PUBLIC "-//W3C//DTD SVG 1.1//EN" "http://www.w3.org/Graphics/SVG/1.1/DTD/svg11.dtd">
<svg xmlns="http://www.w3.org/2000/svg" version="1.1" width="25px" height="25px" style="shape-rendering:geometricPrecision; text-rendering:geometricPrecision; image-rendering:optimizeQuality; fill-rule:evenodd; clip-rule:evenodd" xmlns:xlink="http://www.w3.org/1999/xlink">
<g><path style="opacity:1" fill="#251b19" d="M 16.5,0.5 C 16.5,0.166667 16.5,-0.166667 16.5,-0.5C 18.1667,-0.5 19.8333,-0.5 21.5,-0.5C 22.1667,0.833333 23.1667,1.83333 24.5,2.5C 24.5,4.83333 24.5,7.16667 24.5,9.5C 24.1667,9.5 23.8333,9.5 23.5,9.5C 23.6495,8.44802 23.4828,7.44802 23,6.5C 22.0228,7.77359 21.1894,7.77359 20.5,6.5C 21.7181,4.66823 21.0514,3.66823 18.5,3.5C 18.5774,2.25025 19.244,1.41691 20.5,1C 19.2068,0.50999 17.8734,0.343323 16.5,0.5 Z"/></g>
<g><path style="opacity:1" fill="#48332b" d="M 16.5,0.5 C 17.8734,0.343323 19.2068,0.50999 20.5,1C 19.244,1.41691 18.5774,2.25025 18.5,3.5C 19.1667,4.5 19.8333,5.5 20.5,6.5C 21.1894,7.77359 22.0228,7.77359 23,6.5C 23.4828,7.44802 23.6495,8.44802 23.5,9.5C 23.5,10.1667 23.1667,10.5 22.5,10.5C 21.1667,10.5 19.8333,10.5 18.5,10.5C 17.8333,9.83333 17.1667,9.16667 16.5,8.5C 17.3764,8.63088 18.0431,8.29755 18.5,7.5C 17.5113,5.41376 16.178,3.7471 14.5,2.5C 14.8333,1.5 15.5,0.833333 16.5,0.5 Z"/></g>
<g><path style="opacity:1" fill="#4e3a2b" d="M 14.5,2.5 C 16.178,3.7471 17.5113,5.41376 18.5,7.5C 18.0431,8.29755 17.3764,8.63088 16.5,8.5C 15.1667,8.83333 13.8333,9.16667 12.5,9.5C 12.1667,8.5 11.5,7.83333 10.5,7.5C 11.0798,5.25124 12.4131,3.58457 14.5,2.5 Z"/></g>
<g><path style="opacity:1" fill="#010102" d="M 1.5,10.5 C 3.60737,9.53178 5.9407,9.19845 8.5,9.5C 8.16667,10.5 7.5,11.1667 6.5,11.5C 5.08134,10.5489 3.41467,10.2155 1.5,10.5 Z"/></g>
<g><path style="opacity:1" fill="#7f7c77" d="M 10.5,7.5 C 11.5,7.83333 12.1667,8.5 12.5,9.5C 11.5,10.8333 10.5,12.1667 9.5,13.5C 8.16667,13.5 6.83333,13.5 5.5,13.5C 5.83333,12.8333 6.16667,12.1667 6.5,11.5C 7.5,11.1667 8.16667,10.5 8.5,9.5C 8.83333,8.5 9.5,7.83333 10.5,7.5 Z"/></g>
<g><path style="opacity:1" fill="#62615e" d="M 16.5,8.5 C 17.1667,9.16667 17.8333,9.83333 18.5,10.5C 16.5393,11.4602 14.8726,12.7935 13.5,14.5C 11.901,14.7678 10.5676,14.4345 9.5,13.5C 10.5,12.1667 11.5,10.8333 12.5,9.5C 13.8333,9.16667 15.1667,8.83333 16.5,8.5 Z"/></g>
<g><path style="opacity:1" fill="#000001" d="M 1.5,10.5 C 1.21552,12.4147 1.54885,14.0813 2.5,15.5C 2.16667,16.5 1.5,17.1667 0.5,17.5C 0.198448,14.9407 0.531782,12.6074 1.5,10.5 Z"/></g>
<g><path style="opacity:1" fill="#010102" d="M 18.5,10.5 C 19.8333,10.5 21.1667,10.5 22.5,10.5C 20.067,11.2484 17.7337,12.415 15.5,14C 16.7101,15.0391 17.7101,16.2058 18.5,17.5C 18.5,17.8333 18.5,18.1667 18.5,18.5C 17.5,17.8333 16.5,17.1667 15.5,16.5C 14.8333,15.8333 14.1667,15.1667 13.5,14.5C 14.8726,12.7935 16.5393,11.4602 18.5,10.5 Z"/></g>
<g><path style="opacity:1" fill="#634934" d="M 1.5,10.5 C 3.41467,10.2155 5.08134,10.5489 6.5,11.5C 6.16667,12.1667 5.83333,12.8333 5.5,13.5C 4.5,14.1667 3.5,14.8333 2.5,15.5C 1.54885,14.0813 1.21552,12.4147 1.5,10.5 Z"/></g>
<g><path style="opacity:1" fill="#765a3a" d="M 5.5,13.5 C 6.83333,13.5 8.16667,13.5 9.5,13.5C 10.5676,14.4345 11.901,14.7678 13.5,14.5C 14.1667,15.1667 14.8333,15.8333 15.5,16.5C 14.0222,16.238 12.6888,16.5713 11.5,17.5C 10.9724,19.3361 10.3058,21.0028 9.5,22.5C 8.39514,21.3995 7.06181,20.7329 5.5,20.5C 4.31388,18.2078 4.31388,15.8744 5.5,13.5 Z"/></g>
<g><path style="opacity:1" fill="#010002" d="M -0.5,17.5 C -0.166667,17.5 0.166667,17.5 0.5,17.5C 1.62135,20.0469 3.28801,21.0469 5.5,20.5C 7.06181,20.7329 8.39514,21.3995 9.5,22.5C 12.2869,23.4767 15.2869,23.81 18.5,23.5C 18.5,21.8333 18.5,20.1667 18.5,18.5C 18.5,18.1667 18.5,17.8333 18.5,17.5C 19.4682,19.6074 19.8016,21.9407 19.5,24.5C 15.8333,24.5 12.1667,24.5 8.5,24.5C 7.59429,22.0341 6.09429,21.3674 4,22.5C 2.35659,21.6854 0.856588,20.6854 -0.5,19.5C -0.5,18.8333 -0.5,18.1667 -0.5,17.5 Z"/></g>
<g><path style="opacity:1" fill="#73756d" d="M 5.5,13.5 C 4.31388,15.8744 4.31388,18.2078 5.5,20.5C 3.28801,21.0469 1.62135,20.0469 0.5,17.5C 1.5,17.1667 2.16667,16.5 2.5,15.5C 3.5,14.8333 4.5,14.1667 5.5,13.5 Z"/></g>
<g><path style="opacity:1" fill="#624b35" d="M 15.5,16.5 C 16.5,17.1667 17.5,17.8333 18.5,18.5C 18.5,20.1667 18.5,21.8333 18.5,23.5C 15.2869,23.81 12.2869,23.4767 9.5,22.5C 10.3058,21.0028 10.9724,19.3361 11.5,17.5C 12.6888,16.5713 14.0222,16.238 15.5,16.5 Z"/></g>
</svg>
