<?xml version="1.0" encoding="UTF-8"?>
<!DOCTYPE svg PUBLIC "-//W3C//DTD SVG 1.1//EN" "http://www.w3.org/Graphics/SVG/1.1/DTD/svg11.dtd">
<svg xmlns="http://www.w3.org/2000/svg" version="1.1" width="19px" height="21px" style="shape-rendering:geometricPrecision; text-rendering:geometricPrecision; image-rendering:optimizeQuality; fill-rule:evenodd; clip-rule:evenodd" xmlns:xlink="http://www.w3.org/1999/xlink">
<g><path style="opacity:1" fill="#90998a" d="M 3.5,-0.5 C 4.5,-0.5 5.5,-0.5 6.5,-0.5C 6.5,-0.166667 6.5,0.166667 6.5,0.5C 6.66018,2.19919 6.49351,3.86586 6,5.5C 5.72158,4.5842 5.22158,3.91753 4.5,3.5C 2.37955,2.59665 2.04622,1.26332 3.5,-0.5 Z"/></g>
<g><path style="opacity:1" fill="#191a19" d="M 6.5,0.5 C 8.6208,0.325255 10.6208,0.658588 12.5,1.5C 13.209,0.596028 14.209,0.262695 15.5,0.5C 15.5792,1.93047 15.2458,3.26381 14.5,4.5C 15.325,5.38568 16.325,5.71901 17.5,5.5C 17.8633,7.91146 16.8633,9.41146 14.5,10C 15.3805,10.7083 16.0472,11.5416 16.5,12.5C 12.5128,10.9587 12.5128,9.12533 16.5,7C 14.5273,6.50454 12.5273,6.33788 10.5,6.5C 9.5,6.5 8.5,6.5 7.5,6.5C 5.4727,6.33788 3.4727,6.50454 1.5,7C 5.4872,9.12533 5.4872,10.9587 1.5,12.5C 1.9528,11.5416 2.61947,10.7083 3.5,10C 1.13673,9.41146 0.136727,7.91146 0.5,5.5C 2.48324,5.84316 3.81658,5.17649 4.5,3.5C 5.22158,3.91753 5.72158,4.5842 6,5.5C 6.49351,3.86586 6.66018,2.19919 6.5,0.5 Z"/></g>
<g><path style="opacity:1" fill="#e0efd6" d="M 12.5,1.5 C 13.2389,1.36899 13.9056,1.53566 14.5,2C 12.3263,6.55916 11.6597,6.39249 12.5,1.5 Z"/></g>
<g><path style="opacity:1" fill="#452e0c" d="M 7.5,6.5 C 5.06879,7.74091 5.06879,8.90757 7.5,10C 5.6751,11.4659 5.1751,13.2992 6,15.5C 9.04131,17.9287 12.5413,18.9287 16.5,18.5C 16.1667,19.1667 15.8333,19.8333 15.5,20.5C 11.1667,20.5 6.83333,20.5 2.5,20.5C 1.83333,19.1667 0.833333,18.1667 -0.5,17.5C -0.5,16.1667 -0.5,14.8333 -0.5,13.5C 0.166667,13.1667 0.833333,12.8333 1.5,12.5C 5.4872,10.9587 5.4872,9.12533 1.5,7C 3.4727,6.50454 5.4727,6.33788 7.5,6.5 Z"/></g>
<g><path style="opacity:1" fill="#72640b" d="M 7.5,6.5 C 8.5,6.5 9.5,6.5 10.5,6.5C 10.1741,9.5843 10.8407,12.5843 12.5,15.5C 14.698,15.8799 16.3646,15.2132 17.5,13.5C 17.8333,13.5 18.1667,13.5 18.5,13.5C 18.5,14.8333 18.5,16.1667 18.5,17.5C 17.8333,17.8333 17.1667,18.1667 16.5,18.5C 12.5413,18.9287 9.04131,17.9287 6,15.5C 5.1751,13.2992 5.6751,11.4659 7.5,10C 5.06879,8.90757 5.06879,7.74091 7.5,6.5 Z"/></g>
<g><path style="opacity:1" fill="#aea508" d="M 10.5,6.5 C 12.5273,6.33788 14.5273,6.50454 16.5,7C 12.5128,9.12533 12.5128,10.9587 16.5,12.5C 17.1667,12.5 17.5,12.8333 17.5,13.5C 16.3646,15.2132 14.698,15.8799 12.5,15.5C 10.8407,12.5843 10.1741,9.5843 10.5,6.5 Z"/></g>
</svg>
