<?xml version="1.0" encoding="UTF-8"?>
<!DOCTYPE svg PUBLIC "-//W3C//DTD SVG 1.1//EN" "http://www.w3.org/Graphics/SVG/1.1/DTD/svg11.dtd">
<svg xmlns="http://www.w3.org/2000/svg" version="1.1" width="24px" height="22px" style="shape-rendering:geometricPrecision; text-rendering:geometricPrecision; image-rendering:optimizeQuality; fill-rule:evenodd; clip-rule:evenodd" xmlns:xlink="http://www.w3.org/1999/xlink">
<g><path style="opacity:1" fill="#000001" d="M 12.5,-0.5 C 13.8333,-0.5 15.1667,-0.5 16.5,-0.5C 17.1667,0.5 17.8333,1.5 18.5,2.5C 20.4113,3.07501 22.078,4.07501 23.5,5.5C 23.5,6.16667 23.5,6.83333 23.5,7.5C 21.2017,10.1479 18.8684,10.1479 16.5,7.5C 15.4822,8.19251 14.4822,8.85917 13.5,9.5C 14.1616,5.51862 13.3283,5.51862 11,9.5C 10.2828,8.9558 9.78281,8.28913 9.5,7.5C 12.1717,5.6086 13.1717,2.94194 12.5,-0.5 Z"/></g>
<g><path style="opacity:1" fill="#000001" d="M 3.5,1.5 C 1.97189,1.51731 1.47189,2.18398 2,3.5C 5.33333,6.83333 8.66667,10.1667 12,13.5C 12.7172,12.9558 13.2172,12.2891 13.5,11.5C 15.1336,12.5812 16.467,13.9145 17.5,15.5C 19.9118,15.6941 20.9118,17.0274 20.5,19.5C 16.6509,19.9807 14.6509,18.314 14.5,14.5C 12.8561,14.7135 11.3561,14.3802 10,13.5C 7.2415,15.7512 5.07483,18.4179 3.5,21.5C 2.83333,21.5 2.16667,21.5 1.5,21.5C 1.06795,20.2905 0.40128,19.2905 -0.5,18.5C -0.5,17.8333 -0.5,17.1667 -0.5,16.5C 1.96348,14.5389 4.29681,12.3722 6.5,10C 4.29681,7.62781 1.96348,5.46114 -0.5,3.5C -0.5,2.83333 -0.5,2.16667 -0.5,1.5C 0.961264,0.314337 2.2946,0.314337 3.5,1.5 Z"/></g>
<g><path style="opacity:1" fill="#747b7b" d="M 18.5,2.5 C 22.5391,8.46092 21.5391,9.46092 15.5,5.5C 13.6671,4.03156 13.3338,2.3649 14.5,0.5C 15.6223,1.63023 16.9557,2.29689 18.5,2.5 Z"/></g>
<g><path style="opacity:1" fill="#4c300c" d="M 3.5,1.5 C 5.83333,3.16667 7.83333,5.16667 9.5,7.5C 9.78281,8.28913 10.2828,8.9558 11,9.5C 13.3283,5.51862 14.1616,5.51862 13.5,9.5C 13.5,10.1667 13.5,10.8333 13.5,11.5C 13.2172,12.2891 12.7172,12.9558 12,13.5C 8.66667,10.1667 5.33333,6.83333 2,3.5C 1.47189,2.18398 1.97189,1.51731 3.5,1.5 Z"/></g>
<g><path style="opacity:1" fill="#793d08" d="M 6.5,11.5 C 7.37644,11.3691 8.04311,11.7025 8.5,12.5C 6.47073,14.8585 4.47073,17.1918 2.5,19.5C 1.41728,18.635 1.25061,17.635 2,16.5C 3.70733,14.9625 5.20733,13.2959 6.5,11.5 Z"/></g>
<g><path style="opacity:1" fill="#747b7b" d="M 17.5,15.5 C 17.9528,16.4584 18.6195,17.2917 19.5,18C 17.7991,18.3446 16.4658,17.6779 15.5,16C 16.0944,15.5357 16.7611,15.369 17.5,15.5 Z"/></g>
</svg>
