<?xml version="1.0" encoding="UTF-8"?>
<!DOCTYPE svg PUBLIC "-//W3C//DTD SVG 1.1//EN" "http://www.w3.org/Graphics/SVG/1.1/DTD/svg11.dtd">
<svg xmlns="http://www.w3.org/2000/svg" version="1.1" width="23px" height="23px" style="shape-rendering:geometricPrecision; text-rendering:geometricPrecision; image-rendering:optimizeQuality; fill-rule:evenodd; clip-rule:evenodd" xmlns:xlink="http://www.w3.org/1999/xlink">
<g><path style="opacity:1" fill="#000001" d="M 9.5,-0.5 C 9.83333,-0.5 10.1667,-0.5 10.5,-0.5C 12.385,1.05322 13.385,3.05322 13.5,5.5C 12.6851,4.57075 11.8518,3.57075 11,2.5C 10.1482,3.57075 9.31491,4.57075 8.5,5.5C 8.83333,3.5 9.16667,1.5 9.5,-0.5 Z"/></g>
<g><path style="opacity:1" fill="#000001" d="M 8.5,5.5 C 8.63088,6.37644 8.29755,7.04311 7.5,7.5C 6.66667,6.5 5.83333,5.5 5,4.5C 4.14825,5.57075 3.31491,6.57075 2.5,7.5C 2.68701,5.43571 3.18701,3.43571 4,1.5C 5.37121,3.04138 6.87121,4.37471 8.5,5.5 Z"/></g>
<g><path style="opacity:1" fill="#000001" d="M 19.5,7.5 C 18.6851,6.57075 17.8518,5.57075 17,4.5C 16.1667,5.5 15.3333,6.5 14.5,7.5C 13.7025,7.04311 13.3691,6.37644 13.5,5.5C 14.9663,4.653 15.7996,3.31966 16,1.5C 18.2645,2.91577 19.4312,4.91577 19.5,7.5 Z"/></g>
<g><path style="opacity:1" fill="#a79f0b" d="M 13.5,5.5 C 13.3691,6.37644 13.7025,7.04311 14.5,7.5C 15.3333,6.5 16.1667,5.5 17,4.5C 17.8518,5.57075 18.6851,6.57075 19.5,7.5C 20.3382,7.84171 20.6716,8.50838 20.5,9.5C 20.7373,10.791 20.404,11.791 19.5,12.5C 18.1499,5.56936 16.6499,5.23603 15,11.5C 13.1111,9.51716 11.7777,7.18382 11,4.5C 10.2881,6.84737 9.12143,8.84737 7.5,10.5C 6.41641,9.33492 5.58308,8.00158 5,6.5C 3.87803,8.40679 3.04469,10.4068 2.5,12.5C 1.59603,11.791 1.26269,10.791 1.5,9.5C 1.32842,8.50838 1.66175,7.84171 2.5,7.5C 3.31491,6.57075 4.14825,5.57075 5,4.5C 5.83333,5.5 6.66667,6.5 7.5,7.5C 8.29755,7.04311 8.63088,6.37644 8.5,5.5C 9.31491,4.57075 10.1482,3.57075 11,2.5C 11.8518,3.57075 12.6851,4.57075 13.5,5.5 Z"/></g>
<g><path style="opacity:1" fill="#000001" d="M 1.5,9.5 C 1.26269,10.791 1.59603,11.791 2.5,12.5C 3.96415,14.9845 5.63082,14.9845 7.5,12.5C 8.10667,12.6236 8.44001,12.9569 8.5,13.5C 6.66803,14.1405 6.33469,15.1405 7.5,16.5C 11.1752,18.4503 15.0085,20.1169 19,21.5C 21.0197,20.9681 21.853,19.6348 21.5,17.5C 21.8333,17.5 22.1667,17.5 22.5,17.5C 22.5,18.8333 22.5,20.1667 22.5,21.5C 21.8333,21.5 21.5,21.8333 21.5,22.5C 14.5,22.5 7.5,22.5 0.5,22.5C 0.5,21.8333 0.166667,21.5 -0.5,21.5C -0.5,20.1667 -0.5,18.8333 -0.5,17.5C -0.166667,17.5 0.166667,17.5 0.5,17.5C 0.406203,14.8383 0.739537,12.1716 1.5,9.5 Z"/></g>
<g><path style="opacity:1" fill="#c95101" d="M 19.5,12.5 C 18.0359,14.9845 16.3692,14.9845 14.5,12.5C 13.8933,12.6236 13.56,12.9569 13.5,13.5C 11.8333,14.8333 10.1667,14.8333 8.5,13.5C 8.44001,12.9569 8.10667,12.6236 7.5,12.5C 5.63082,14.9845 3.96415,14.9845 2.5,12.5C 3.04469,10.4068 3.87803,8.40679 5,6.5C 5.58308,8.00158 6.41641,9.33492 7.5,10.5C 9.12143,8.84737 10.2881,6.84737 11,4.5C 11.7777,7.18382 13.1111,9.51716 15,11.5C 16.6499,5.23603 18.1499,5.56936 19.5,12.5 Z"/></g>
<g><path style="opacity:1" fill="#000001" d="M 20.5,9.5 C 21.2605,12.1716 21.5938,14.8383 21.5,17.5C 18.3508,17.7886 15.3508,17.2886 12.5,16C 15.7982,15.7006 16.1315,14.8673 13.5,13.5C 13.56,12.9569 13.8933,12.6236 14.5,12.5C 16.3692,14.9845 18.0359,14.9845 19.5,12.5C 20.404,11.791 20.7373,10.791 20.5,9.5 Z"/></g>
<g><path style="opacity:1" fill="#50350c" d="M 8.5,13.5 C 10.1667,14.8333 11.8333,14.8333 13.5,13.5C 16.1315,14.8673 15.7982,15.7006 12.5,16C 15.3508,17.2886 18.3508,17.7886 21.5,17.5C 21.853,19.6348 21.0197,20.9681 19,21.5C 15.0085,20.1169 11.1752,18.4503 7.5,16.5C 6.33469,15.1405 6.66803,14.1405 8.5,13.5 Z"/></g>
<g><path style="opacity:1" fill="#573a0b" d="M 0.5,17.5 C 10.2303,17.3098 11.0637,18.6432 3,21.5C 0.980291,20.9681 0.146958,19.6348 0.5,17.5 Z"/></g>
</svg>
