<?xml version="1.0" encoding="UTF-8"?>
<!DOCTYPE svg PUBLIC "-//W3C//DTD SVG 1.1//EN" "http://www.w3.org/Graphics/SVG/1.1/DTD/svg11.dtd">
<svg xmlns="http://www.w3.org/2000/svg" version="1.1" width="25px" height="25px" style="shape-rendering:geometricPrecision; text-rendering:geometricPrecision; image-rendering:optimizeQuality; fill-rule:evenodd; clip-rule:evenodd" xmlns:xlink="http://www.w3.org/1999/xlink">
<g><path style="opacity:1" fill="#070604" d="M 14.5,0.5 C 14.5,0.166667 14.5,-0.166667 14.5,-0.5C 15.1667,-0.5 15.8333,-0.5 16.5,-0.5C 16.7118,1.38411 17.7118,2.71745 19.5,3.5C 19.3764,4.10667 19.0431,4.44001 18.5,4.5C 17.791,3.59603 16.791,3.26269 15.5,3.5C 15.7373,2.20895 15.404,1.20895 14.5,0.5 Z"/></g>
<g><path style="opacity:1" fill="#1c530d" d="M 14.5,0.5 C 15.404,1.20895 15.7373,2.20895 15.5,3.5C 15.1667,4.5 14.5,5.16667 13.5,5.5C 12.596,4.79105 12.2627,3.79105 12.5,2.5C 12.8333,1.5 13.5,0.833333 14.5,0.5 Z"/></g>
<g><path style="opacity:1" fill="#115908" d="M 15.5,3.5 C 16.791,3.26269 17.791,3.59603 18.5,4.5C 18.1667,5.5 17.5,6.16667 16.5,6.5C 15.209,6.73731 14.209,6.40397 13.5,5.5C 14.5,5.16667 15.1667,4.5 15.5,3.5 Z"/></g>
<g><path style="opacity:1" fill="#0d0e0e" d="M 24.5,4.5 C 24.5,5.83333 24.5,7.16667 24.5,8.5C 23.5,8.5 22.5,8.5 21.5,8.5C 21.5,7.83333 21.1667,7.5 20.5,7.5C 20.5,6.5 20.5,5.5 20.5,4.5C 21.8333,4.5 23.1667,4.5 24.5,4.5 Z"/></g>
<g><path style="opacity:1" fill="#793d08" d="M 21.5,6.5 C 22.0768,5.22671 22.7435,5.22671 23.5,6.5C 23.0302,7.46295 22.3635,7.46295 21.5,6.5 Z"/></g>
<g><path style="opacity:1" fill="#19160e" d="M 12.5,2.5 C 12.2627,3.79105 12.596,4.79105 13.5,5.5C 14.209,6.40397 15.209,6.73731 16.5,6.5C 13.0289,7.6104 10.0289,9.6104 7.5,12.5C 7.5,11.8333 7.16667,11.5 6.5,11.5C 9.3896,8.97109 11.3896,5.97109 12.5,2.5 Z"/></g>
<g><path style="opacity:1" fill="#1b1811" d="M 20.5,7.5 C 21.1667,7.5 21.5,7.83333 21.5,8.5C 18.8712,11.6306 16.0379,14.6306 13,17.5C 12.79,19.0581 12.29,20.3915 11.5,21.5C 11.7373,20.209 11.404,19.209 10.5,18.5C 9.79105,17.596 8.79105,17.2627 7.5,17.5C 8.60853,16.71 9.94186,16.21 11.5,16C 14.3694,12.9621 17.3694,10.1288 20.5,7.5 Z"/></g>
<g><path style="opacity:1" fill="#211e16" d="M 6.5,11.5 C 7.16667,11.5 7.5,11.8333 7.5,12.5C 6.5,14.1667 5.16667,15.5 3.5,16.5C 2.83333,16.5 2.5,16.1667 2.5,15.5C 3.5,13.8333 4.83333,12.5 6.5,11.5 Z"/></g>
<g><path style="opacity:1" fill="#0d0e0e" d="M -0.5,15.5 C 0.5,15.5 1.5,15.5 2.5,15.5C 2.5,16.1667 2.83333,16.5 3.5,16.5C 3.5,17.5 3.5,18.5 3.5,19.5C 2.16667,19.5 0.833333,19.5 -0.5,19.5C -0.5,18.1667 -0.5,16.8333 -0.5,15.5 Z"/></g>
<g><path style="opacity:1" fill="#793d08" d="M 0.5,16.5 C 1.28913,16.7828 1.9558,17.2828 2.5,18C 1.18398,18.5281 0.517311,18.0281 0.5,16.5 Z"/></g>
<g><path style="opacity:1" fill="#1c530d" d="M 7.5,17.5 C 8.79105,17.2627 9.79105,17.596 10.5,18.5C 10.1667,19.5 9.5,20.1667 8.5,20.5C 7.20895,20.7373 6.20895,20.404 5.5,19.5C 5.83333,18.5 6.5,17.8333 7.5,17.5 Z"/></g>
<g><path style="opacity:1" fill="#115908" d="M 10.5,18.5 C 11.404,19.209 11.7373,20.209 11.5,21.5C 11.1667,22.5 10.5,23.1667 9.5,23.5C 8.59603,22.791 8.26269,21.791 8.5,20.5C 9.5,20.1667 10.1667,19.5 10.5,18.5 Z"/></g>
<g><path style="opacity:1" fill="#070604" d="M 5.5,19.5 C 6.20895,20.404 7.20895,20.7373 8.5,20.5C 8.26269,21.791 8.59603,22.791 9.5,23.5C 9.5,23.8333 9.5,24.1667 9.5,24.5C 8.83333,24.5 8.16667,24.5 7.5,24.5C 7.28818,22.6159 6.28818,21.2826 4.5,20.5C 4.62358,19.8933 4.95691,19.56 5.5,19.5 Z"/></g>
</svg>
