<?xml version="1.0" encoding="UTF-8"?>
<!DOCTYPE svg PUBLIC "-//W3C//DTD SVG 1.1//EN" "http://www.w3.org/Graphics/SVG/1.1/DTD/svg11.dtd">
<svg xmlns="http://www.w3.org/2000/svg" version="1.1" width="25px" height="17px" style="shape-rendering:geometricPrecision; text-rendering:geometricPrecision; image-rendering:optimizeQuality; fill-rule:evenodd; clip-rule:evenodd" xmlns:xlink="http://www.w3.org/1999/xlink">
<g><path style="opacity:1" fill="#000001" d="M 10.5,0.5 C 9.87096,3.39733 8.87096,6.064 7.5,8.5C 5.54145,7.12901 3.37478,6.12901 1,5.5C 1.14389,10.8164 3.97722,13.8164 9.5,14.5C 11.1667,15.8333 12.8333,15.8333 14.5,14.5C 20.0228,13.8164 22.8561,10.8164 23,5.5C 20.6252,6.12901 18.4586,7.12901 16.5,8.5C 15.129,6.064 14.129,3.39733 13.5,0.5C 14.6049,1.60048 15.9382,2.26714 17.5,2.5C 18.209,1.59603 19.209,1.26269 20.5,1.5C 20.3433,2.87344 20.51,4.20677 21,5.5C 22.0113,4.66337 23.1779,4.33003 24.5,4.5C 24.5,6.5 24.5,8.5 24.5,10.5C 21.945,13.2699 18.945,15.2699 15.5,16.5C 13.1667,16.5 10.8333,16.5 8.5,16.5C 5.05496,15.2699 2.05496,13.2699 -0.5,10.5C -0.5,8.5 -0.5,6.5 -0.5,4.5C 0.822066,4.33003 1.98873,4.66337 3,5.5C 3.49001,4.20677 3.65668,2.87344 3.5,1.5C 4.79105,1.26269 5.79105,1.59603 6.5,2.5C 8.06181,2.26714 9.39514,1.60048 10.5,0.5 Z"/></g>
<g><path style="opacity:1" fill="#0b6803" d="M 10.5,-0.5 C 11.5,-0.5 12.5,-0.5 13.5,-0.5C 13.5,-0.166667 13.5,0.166667 13.5,0.5C 14.129,3.39733 15.129,6.064 16.5,8.5C 15.6373,10.4214 14.9707,12.4214 14.5,14.5C 12.8333,15.8333 11.1667,15.8333 9.5,14.5C 9.02935,12.4214 8.36268,10.4214 7.5,8.5C 8.87096,6.064 9.87096,3.39733 10.5,0.5C 10.5,0.166667 10.5,-0.166667 10.5,-0.5 Z"/></g>
<g><path style="opacity:1" fill="#00bc00" d="M 6.5,2.5 C 6.91753,3.22158 7.5842,3.72158 8.5,4C 7.43541,7.01295 6.10208,7.01295 4.5,4C 4.83611,2.97008 5.50278,2.47008 6.5,2.5 Z"/></g>
<g><path style="opacity:1" fill="#00bc00" d="M 17.5,2.5 C 20.0182,3.75948 19.8515,5.09281 17,6.5C 16.6258,5.58377 16.1258,4.75044 15.5,4C 16.4158,3.72158 17.0825,3.22158 17.5,2.5 Z"/></g>
<g><path style="opacity:1" fill="#00bc00" d="M 7.5,8.5 C 8.36268,10.4214 9.02935,12.4214 9.5,14.5C 3.97722,13.8164 1.14389,10.8164 1,5.5C 3.37478,6.12901 5.54145,7.12901 7.5,8.5 Z"/></g>
<g><path style="opacity:1" fill="#00bc00" d="M 14.5,14.5 C 14.9707,12.4214 15.6373,10.4214 16.5,8.5C 18.4586,7.12901 20.6252,6.12901 23,5.5C 22.8561,10.8164 20.0228,13.8164 14.5,14.5 Z"/></g>
</svg>
