<?xml version="1.0" encoding="UTF-8"?>
<!DOCTYPE svg PUBLIC "-//W3C//DTD SVG 1.1//EN" "http://www.w3.org/Graphics/SVG/1.1/DTD/svg11.dtd">
<svg xmlns="http://www.w3.org/2000/svg" version="1.1" width="23px" height="20px" style="shape-rendering:geometricPrecision; text-rendering:geometricPrecision; image-rendering:optimizeQuality; fill-rule:evenodd; clip-rule:evenodd" xmlns:xlink="http://www.w3.org/1999/xlink">
<g><path style="opacity:1" fill="#000001" d="M 1.5,-0.5 C 3.83333,-0.5 6.16667,-0.5 8.5,-0.5C 10.1667,2.16667 11.8333,2.16667 13.5,-0.5C 15.8333,-0.5 18.1667,-0.5 20.5,-0.5C 20.9321,0.709515 21.5987,1.70951 22.5,2.5C 22.5,5.16667 22.5,7.83333 22.5,10.5C 19.8621,13.4744 17.1954,16.4744 14.5,19.5C 12.1667,19.5 9.83333,19.5 7.5,19.5C 4.80461,16.4744 2.13794,13.4744 -0.5,10.5C -0.5,7.83333 -0.5,5.16667 -0.5,2.5C 0.40128,1.70951 1.06795,0.709515 1.5,-0.5 Z"/></g>
<g><path style="opacity:1" fill="#dc4f00" d="M 12.5,2.5 C 16.5615,6.50715 16.2281,10.3405 11.5,14C 10.1667,14.6667 8.83333,14.6667 7.5,14C 5.5952,12.5787 3.5952,11.412 1.5,10.5C 0.0259354,7.16935 0.359269,4.00268 2.5,1C 5.9683,0.56578 9.30163,1.06578 12.5,2.5 Z"/></g>
<g><path style="opacity:1" fill="#793d08" d="M 14.5,1.5 C 16.2232,0.192994 18.0565,0.192994 20,1.5C 21.4217,4.03007 21.755,6.69674 21,9.5C 18.3107,14.9086 14.144,17.7419 8.5,18C 7.94404,17.6174 7.61071,17.1174 7.5,16.5C 8.84736,17.0283 10.1807,17.195 11.5,17C 13.3333,15.1667 15.1667,13.3333 17,11.5C 17.6667,8.83333 17.6667,6.16667 17,3.5C 16.2917,2.61947 15.4584,1.9528 14.5,1.5 Z"/></g>
<g><path style="opacity:1" fill="#b23902" d="M 12.5,2.5 C 12.8417,1.66175 13.5084,1.32842 14.5,1.5C 15.4584,1.9528 16.2917,2.61947 17,3.5C 17.6667,6.16667 17.6667,8.83333 17,11.5C 15.1667,13.3333 13.3333,15.1667 11.5,17C 10.1807,17.195 8.84736,17.0283 7.5,16.5C 5.16667,14.8333 3.16667,12.8333 1.5,10.5C 3.5952,11.412 5.5952,12.5787 7.5,14C 8.83333,14.6667 10.1667,14.6667 11.5,14C 16.2281,10.3405 16.5615,6.50715 12.5,2.5 Z"/></g>
</svg>
