<?xml version="1.0" encoding="UTF-8"?>
<!DOCTYPE svg PUBLIC "-//W3C//DTD SVG 1.1//EN" "http://www.w3.org/Graphics/SVG/1.1/DTD/svg11.dtd">
<svg xmlns="http://www.w3.org/2000/svg" version="1.1" width="22px" height="23px" style="shape-rendering:geometricPrecision; text-rendering:geometricPrecision; image-rendering:optimizeQuality; fill-rule:evenodd; clip-rule:evenodd" xmlns:xlink="http://www.w3.org/1999/xlink">
<g><path style="opacity:1" fill="#342d31" d="M 7.5,-0.5 C 7.83333,-0.5 8.16667,-0.5 8.5,-0.5C 8.5,0.166667 8.5,0.833333 8.5,1.5C 8.66409,4.1873 8.49742,6.85397 8,9.5C 7.33333,10.8333 6.66667,10.8333 6,9.5C 5.50649,7.86586 5.33982,6.19919 5.5,4.5C 6.16667,2.83333 6.83333,1.16667 7.5,-0.5 Z"/></g>
<g><path style="opacity:1" fill="#0b0b0a" d="M 8.5,1.5 C 9.63784,4.30354 9.80451,7.30354 9,10.5C 7.66667,11.8333 6.33333,11.8333 5,10.5C 4.21086,8.28841 4.37753,6.28841 5.5,4.5C 5.33982,6.19919 5.50649,7.86586 6,9.5C 6.66667,10.8333 7.33333,10.8333 8,9.5C 8.49742,6.85397 8.66409,4.1873 8.5,1.5 Z"/></g>
<g><path style="opacity:1" fill="#2c272a" d="M 12.5,-0.5 C 12.8333,-0.5 13.1667,-0.5 13.5,-0.5C 13.5569,0.608953 13.8902,1.60895 14.5,2.5C 14.6633,4.85684 14.4966,7.19018 14,9.5C 13.6174,10.056 13.1174,10.3893 12.5,10.5C 11.2854,6.96745 11.2854,3.30078 12.5,-0.5 Z"/></g>
<g><path style="opacity:1" fill="#0b0b0a" d="M 14.5,2.5 C 16.8556,4.93733 17.0223,7.604 15,10.5C 14.0228,11.7736 13.1894,11.7736 12.5,10.5C 13.1174,10.3893 13.6174,10.056 14,9.5C 14.4966,7.19018 14.6633,4.85684 14.5,2.5 Z"/></g>
<g><path style="opacity:1" fill="#372f32" d="M 19.5,8.5 C 20.2541,11.0777 20.2541,13.7444 19.5,16.5C 17.0882,16.3059 16.0882,14.9726 16.5,12.5C 16.6079,10.2166 17.4412,8.2166 19,6.5C 19.4643,7.09442 19.631,7.76109 19.5,8.5 Z"/></g>
<g><path style="opacity:1" fill="#0b0b0a" d="M 19.5,8.5 C 20.1667,8.83333 20.8333,9.16667 21.5,9.5C 21.5,10.8333 21.5,12.1667 21.5,13.5C 20.8333,14.5 20.1667,15.5 19.5,16.5C 20.2541,13.7444 20.2541,11.0777 19.5,8.5 Z"/></g>
<g><path style="opacity:1" fill="#262023" d="M -0.5,14.5 C -0.5,13.5 -0.5,12.5 -0.5,11.5C 0.409824,9.98123 1.24316,8.31456 2,6.5C 3.23304,8.86578 4.06637,11.3658 4.5,14C 3.365,18.447 1.69834,18.6136 -0.5,14.5 Z"/></g>
<g><path style="opacity:1" fill="#0b0b0a" d="M 16.5,12.5 C 16.0882,14.9726 17.0882,16.3059 19.5,16.5C 18.4583,17.7911 17.2917,17.7911 16,16.5C 15.235,14.9343 15.4017,13.6009 16.5,12.5 Z"/></g>
<g><path style="opacity:1" fill="#0b0b0a" d="M 7.5,14.5 C 7.57298,16.0269 6.90632,17.0269 5.5,17.5C 5.42702,15.9731 6.09368,14.9731 7.5,14.5 Z"/></g>
<g><path style="opacity:1" fill="#383033" d="M 12.5,14.5 C 12.2291,16.3797 12.8958,17.713 14.5,18.5C 14.5858,19.4959 14.2524,20.3292 13.5,21C 10.854,21.4974 8.1873,21.6641 5.5,21.5C 4.16667,20.1667 4.16667,18.8333 5.5,17.5C 6.90632,17.0269 7.57298,16.0269 7.5,14.5C 9.16667,13.1667 10.8333,13.1667 12.5,14.5 Z"/></g>
<g><path style="opacity:1" fill="#0b0b0a" d="M 12.5,14.5 C 13.6737,15.5137 14.3404,16.847 14.5,18.5C 12.8958,17.713 12.2291,16.3797 12.5,14.5 Z"/></g>
<g><path style="opacity:1" fill="#0b0b0a" d="M 14.5,18.5 C 15.6857,19.7054 15.6857,21.0387 14.5,22.5C 11.5,22.5 8.5,22.5 5.5,22.5C 5.5,22.1667 5.5,21.8333 5.5,21.5C 8.1873,21.6641 10.854,21.4974 13.5,21C 14.2524,20.3292 14.5858,19.4959 14.5,18.5 Z"/></g>
</svg>
