<?xml version="1.0" encoding="UTF-8"?>
<!DOCTYPE svg PUBLIC "-//W3C//DTD SVG 1.1//EN" "http://www.w3.org/Graphics/SVG/1.1/DTD/svg11.dtd">
<svg xmlns="http://www.w3.org/2000/svg" version="1.1" width="25px" height="23px" style="shape-rendering:geometricPrecision; text-rendering:geometricPrecision; image-rendering:optimizeQuality; fill-rule:evenodd; clip-rule:evenodd" xmlns:xlink="http://www.w3.org/1999/xlink">
<g><path style="opacity:1" fill="#000001" d="M 8.5,-0.5 C 9.83333,-0.5 11.1667,-0.5 12.5,-0.5C 12.5,0.166667 12.5,0.833333 12.5,1.5C 11.3478,0.375047 10.3478,0.375047 9.5,1.5C 7.05524,3.67163 5.05524,6.3383 3.5,9.5C 4,9.83333 4.5,10.1667 5,10.5C 6.05674,9.37263 7.22341,8.87263 8.5,9C 7.53597,10.7255 6.8693,12.5588 6.5,14.5C 5.66175,14.8417 5.32842,15.5084 5.5,16.5C 0.645237,15.0189 -0.354763,16.3523 2.5,20.5C 6.42949,21.4328 10.4295,21.7662 14.5,21.5C 17.3076,20.8972 19.9742,19.8972 22.5,18.5C 23.2458,17.2638 23.5792,15.9305 23.5,14.5C 23.8333,14.5 24.1667,14.5 24.5,14.5C 24.5,15.8333 24.5,17.1667 24.5,18.5C 22.3619,20.2092 20.0285,21.5426 17.5,22.5C 12.5,22.5 7.5,22.5 2.5,22.5C 1.5,21.5 0.5,20.5 -0.5,19.5C -0.5,18.1667 -0.5,16.8333 -0.5,15.5C 1.85429,15.0896 3.85429,14.0896 5.5,12.5C 4.67504,11.6143 3.67504,11.281 2.5,11.5C 3.43578,6.96177 5.43578,2.96177 8.5,-0.5 Z"/></g>
<g><path style="opacity:1" fill="#0005fe" d="M 12.5,1.5 C 13.6373,5.57861 14.9706,9.57861 16.5,13.5C 16.5,14.1667 16.1667,14.5 15.5,14.5C 13.8848,11.3773 12.8848,8.04397 12.5,4.5C 11.448,4.64945 10.448,4.48278 9.5,4C 10.5981,3.23029 10.5981,2.39695 9.5,1.5C 10.3478,0.375047 11.3478,0.375047 12.5,1.5 Z"/></g>
<g><path style="opacity:1" fill="#1b068e" d="M 9.5,1.5 C 10.5981,2.39695 10.5981,3.23029 9.5,4C 10.448,4.48278 11.448,4.64945 12.5,4.5C 12.8848,8.04397 13.8848,11.3773 15.5,14.5C 12.3623,15.6813 9.36229,15.6813 6.5,14.5C 6.8693,12.5588 7.53597,10.7255 8.5,9C 7.22341,8.87263 6.05674,9.37263 5,10.5C 4.5,10.1667 4,9.83333 3.5,9.5C 5.05524,6.3383 7.05524,3.67163 9.5,1.5 Z"/></g>
<g><path style="opacity:1" fill="#000001" d="M 12.5,1.5 C 14.6477,4.40259 16.1477,7.73593 17,11.5C 18,12.5 19,13.5 20,14.5C 21.2917,13.2089 22.4583,13.2089 23.5,14.5C 21.8297,14.7512 20.3297,15.4178 19,16.5C 18.6012,16.2716 18.4346,15.9382 18.5,15.5C 18.1667,14.5 17.5,13.8333 16.5,13.5C 14.9706,9.57861 13.6373,5.57861 12.5,1.5 Z"/></g>
<g><path style="opacity:1" fill="#936b09" d="M 16.5,13.5 C 17.5,13.8333 18.1667,14.5 18.5,15.5C 17.2905,15.9321 16.2905,16.5987 15.5,17.5C 12.1194,17.5405 8.78611,17.2071 5.5,16.5C 5.32842,15.5084 5.66175,14.8417 6.5,14.5C 9.36229,15.6813 12.3623,15.6813 15.5,14.5C 16.1667,14.5 16.5,14.1667 16.5,13.5 Z"/></g>
<g><path style="opacity:1" fill="#0106fb" d="M 23.5,14.5 C 23.5792,15.9305 23.2458,17.2638 22.5,18.5C 19.9742,19.8972 17.3076,20.8972 14.5,21.5C 13.3915,20.71 12.0581,20.21 10.5,20C 12.1749,19.0147 13.8415,18.1814 15.5,17.5C 16.2905,16.5987 17.2905,15.9321 18.5,15.5C 18.4346,15.9382 18.6012,16.2716 19,16.5C 20.3297,15.4178 21.8297,14.7512 23.5,14.5 Z"/></g>
<g><path style="opacity:1" fill="#1b0592" d="M 5.5,16.5 C 8.78611,17.2071 12.1194,17.5405 15.5,17.5C 13.8415,18.1814 12.1749,19.0147 10.5,20C 12.0581,20.21 13.3915,20.71 14.5,21.5C 10.4295,21.7662 6.42949,21.4328 2.5,20.5C -0.354763,16.3523 0.645237,15.0189 5.5,16.5 Z"/></g>
</svg>
