<?xml version="1.0" encoding="UTF-8"?>
<!DOCTYPE svg PUBLIC "-//W3C//DTD SVG 1.1//EN" "http://www.w3.org/Graphics/SVG/1.1/DTD/svg11.dtd">
<svg xmlns="http://www.w3.org/2000/svg" version="1.1" width="23px" height="23px" style="shape-rendering:geometricPrecision; text-rendering:geometricPrecision; image-rendering:optimizeQuality; fill-rule:evenodd; clip-rule:evenodd" xmlns:xlink="http://www.w3.org/1999/xlink">
<g><path style="opacity:1" fill="#444748" d="M 6.5,-0.5 C 8.5,-0.5 10.5,-0.5 12.5,-0.5C 13.1667,0.166667 13.8333,0.833333 14.5,1.5C 15.2905,2.40128 16.2905,3.06795 17.5,3.5C 17.5,4.16667 17.8333,4.5 18.5,4.5C 18.9321,5.70951 19.5987,6.70951 20.5,7.5C 21.1667,8.16667 21.8333,8.83333 22.5,9.5C 22.5,11.5 22.5,13.5 22.5,15.5C 21.8971,18.1748 20.5638,20.5082 18.5,22.5C 17.8333,22.5 17.1667,22.5 16.5,22.5C 16.3893,21.8826 16.056,21.3826 15.5,21C 19.0668,17.0972 19.4001,12.9305 16.5,8.5C 15.8333,7.16667 14.8333,6.16667 13.5,5.5C 9.06946,2.59988 4.90279,2.93321 1,6.5C 0.617425,5.94404 0.117425,5.61071 -0.5,5.5C -0.5,4.83333 -0.5,4.16667 -0.5,3.5C 1.49185,1.4362 3.82518,0.10287 6.5,-0.5 Z"/></g>
<g><path style="opacity:1" fill="#000001" d="M 20.5,7.5 C 19.5987,6.70951 18.9321,5.70951 18.5,4.5C 21.0118,3.78376 21.0118,2.78376 18.5,1.5C 17.7025,1.95689 17.3691,2.62356 17.5,3.5C 16.2905,3.06795 15.2905,2.40128 14.5,1.5C 20.8333,-0.833333 22.8333,1.16667 20.5,7.5 Z"/></g>
<g><path style="opacity:1" fill="#3e352a" d="M 18.5,4.5 C 17.8333,4.5 17.5,4.16667 17.5,3.5C 17.3691,2.62356 17.7025,1.95689 18.5,1.5C 21.0118,2.78376 21.0118,3.78376 18.5,4.5 Z"/></g>
<g><path style="opacity:1" fill="#28231c" d="M 13.5,5.5 C 14.8333,6.16667 15.8333,7.16667 16.5,8.5C 10.8333,12.1667 6.16667,16.8333 2.5,22.5C 1.5,22.5 0.5,22.5 -0.5,22.5C -0.5,21.5 -0.5,20.5 -0.5,19.5C 5.16667,15.8333 9.83333,11.1667 13.5,5.5 Z"/></g>
</svg>
