<?xml version="1.0" encoding="UTF-8"?>
<!DOCTYPE svg PUBLIC "-//W3C//DTD SVG 1.1//EN" "http://www.w3.org/Graphics/SVG/1.1/DTD/svg11.dtd">
<svg xmlns="http://www.w3.org/2000/svg" version="1.1" width="23px" height="22px" style="shape-rendering:geometricPrecision; text-rendering:geometricPrecision; image-rendering:optimizeQuality; fill-rule:evenodd; clip-rule:evenodd" xmlns:xlink="http://www.w3.org/1999/xlink">
<g><path style="opacity:1" fill="#040304" d="M -0.5,-0.5 C -0.166667,-0.5 0.166667,-0.5 0.5,-0.5C 0.555219,2.09777 0.888552,4.76443 1.5,7.5C 0.166667,7.83333 0.166667,8.16667 1.5,8.5C 0.57007,12.3998 0.236737,16.3998 0.5,20.5C 2.5,20.5 4.5,20.5 6.5,20.5C 6.5,16.1667 6.5,11.8333 6.5,7.5C 5.16667,7.5 3.83333,7.5 2.5,7.5C 3.56764,6.56552 4.90097,6.23219 6.5,6.5C 6.23219,4.90097 6.56552,3.56764 7.5,2.5C 7.5,2.83333 7.5,3.16667 7.5,3.5C 7.5,6.16667 7.5,8.83333 7.5,11.5C 7.5,14.5 7.5,17.5 7.5,20.5C 9.5,20.5 11.5,20.5 13.5,20.5C 13.2053,18.2646 13.5386,16.2646 14.5,14.5C 14.5,14.8333 14.5,15.1667 14.5,15.5C 14.5,17.1667 14.5,18.8333 14.5,20.5C 15.8333,20.5 17.1667,20.5 18.5,20.5C 18.8333,20.5 19.1667,20.5 19.5,20.5C 20.1667,20.1667 20.8333,19.8333 21.5,19.5C 21.5,20.1667 21.5,20.8333 21.5,21.5C 14.1667,21.5 6.83333,21.5 -0.5,21.5C -0.5,14.1667 -0.5,6.83333 -0.5,-0.5 Z"/></g>
<g><path style="opacity:1" fill="#0b0b0a" d="M 14.5,0.5 C 15.1667,4.5 15.8333,8.5 16.5,12.5C 16.1667,13.5 15.5,14.1667 14.5,14.5C 14.5,12.5 14.5,10.5 14.5,8.5C 14.5,5.83333 14.5,3.16667 14.5,0.5 Z"/></g>
<g><path style="opacity:1" fill="#457148" d="M 9.5,-0.5 C 11.1667,-0.5 12.8333,-0.5 14.5,-0.5C 14.5,-0.166667 14.5,0.166667 14.5,0.5C 14.5,3.16667 14.5,5.83333 14.5,8.5C 13.8333,8.83333 13.1667,9.16667 12.5,9.5C 12.5,7.16667 12.5,4.83333 12.5,2.5C 10.8333,2.5 9.16667,2.5 7.5,2.5C 8.16667,1.5 8.83333,0.5 9.5,-0.5 Z"/></g>
<g><path style="opacity:1" fill="#a4a7a2" d="M 7.5,3.5 C 7.5,3.16667 7.5,2.83333 7.5,2.5C 9.16667,2.5 10.8333,2.5 12.5,2.5C 12.5,4.83333 12.5,7.16667 12.5,9.5C 11.5386,7.73535 11.2053,5.73535 11.5,3.5C 10.1667,3.5 8.83333,3.5 7.5,3.5 Z"/></g>
<g><path style="opacity:1" fill="#578b58" d="M 7.5,3.5 C 8.83333,3.5 10.1667,3.5 11.5,3.5C 11.2053,5.73535 11.5386,7.73535 12.5,9.5C 12.6641,12.1873 12.4974,14.854 12,17.5C 11.5045,15.5273 11.3379,13.5273 11.5,11.5C 10.1667,11.5 8.83333,11.5 7.5,11.5C 7.5,8.83333 7.5,6.16667 7.5,3.5 Z"/></g>
<g><path style="opacity:1" fill="#a33333" d="M 1.5,7.5 C 1.83333,7.5 2.16667,7.5 2.5,7.5C 3.83333,7.5 5.16667,7.5 6.5,7.5C 6.5,11.8333 6.5,16.1667 6.5,20.5C 4.5,20.5 2.5,20.5 0.5,20.5C 0.236737,16.3998 0.57007,12.3998 1.5,8.5C 1.5,8.16667 1.5,7.83333 1.5,7.5 Z"/></g>
<g><path style="opacity:1" fill="#1f2135" d="M 21.5,12.5 C 21.8333,12.5 22.1667,12.5 22.5,12.5C 22.5,14.8333 22.5,17.1667 22.5,19.5C 22.1667,19.5 21.8333,19.5 21.5,19.5C 20.8333,19.8333 20.1667,20.1667 19.5,20.5C 19.1072,17.4867 19.7739,14.8201 21.5,12.5 Z"/></g>
<g><path style="opacity:1" fill="#363e85" d="M 21.5,12.5 C 19.7739,14.8201 19.1072,17.4867 19.5,20.5C 19.1667,20.5 18.8333,20.5 18.5,20.5C 18.5,18.8333 18.5,17.1667 18.5,15.5C 17.1667,15.5 15.8333,15.5 14.5,15.5C 14.5,15.1667 14.5,14.8333 14.5,14.5C 15.5,14.1667 16.1667,13.5 16.5,12.5C 18.1667,11.1667 19.8333,11.1667 21.5,12.5 Z"/></g>
<g><path style="opacity:1" fill="#216228" d="M 14.5,8.5 C 14.5,10.5 14.5,12.5 14.5,14.5C 13.5386,16.2646 13.2053,18.2646 13.5,20.5C 11.5,20.5 9.5,20.5 7.5,20.5C 7.5,17.5 7.5,14.5 7.5,11.5C 8.83333,11.5 10.1667,11.5 11.5,11.5C 11.3379,13.5273 11.5045,15.5273 12,17.5C 12.4974,14.854 12.6641,12.1873 12.5,9.5C 13.1667,9.16667 13.8333,8.83333 14.5,8.5 Z"/></g>
<g><path style="opacity:1" fill="#252b48" d="M 14.5,15.5 C 15.8333,15.5 17.1667,15.5 18.5,15.5C 18.5,17.1667 18.5,18.8333 18.5,20.5C 17.1667,20.5 15.8333,20.5 14.5,20.5C 14.5,18.8333 14.5,17.1667 14.5,15.5 Z"/></g>
</svg>
