<?xml version="1.0" encoding="UTF-8"?>
<!DOCTYPE svg PUBLIC "-//W3C//DTD SVG 1.1//EN" "http://www.w3.org/Graphics/SVG/1.1/DTD/svg11.dtd">
<svg xmlns="http://www.w3.org/2000/svg" version="1.1" width="23px" height="23px" style="shape-rendering:geometricPrecision; text-rendering:geometricPrecision; image-rendering:optimizeQuality; fill-rule:evenodd; clip-rule:evenodd" xmlns:xlink="http://www.w3.org/1999/xlink">
<g><path style="opacity:1" fill="#000001" d="M 11.5,0.5 C 12.5375,1.93033 13.2041,3.59699 13.5,5.5C 11.7868,4.36465 11.1201,2.69798 11.5,0.5 Z"/></g>
<g><path style="opacity:1" fill="#555956" d="M 10.5,0.5 C 10.6646,3.51838 10.498,6.51838 10,9.5C 6.94325,10.4505 3.77659,10.7839 0.5,10.5C 2.39604,9.51948 4.39604,8.51948 6.5,7.5C 8.12743,5.23459 9.46076,2.90126 10.5,0.5 Z"/></g>
<g><path style="opacity:1" fill="#879487" d="M 10.5,-0.5 C 10.8333,-0.5 11.1667,-0.5 11.5,-0.5C 11.5,-0.166667 11.5,0.166667 11.5,0.5C 11.1201,2.69798 11.7868,4.36465 13.5,5.5C 16.0125,7.9257 19.0125,9.59237 22.5,10.5C 22.5,10.8333 22.5,11.1667 22.5,11.5C 16.1667,12.5 12.5,16.1667 11.5,22.5C 11.1667,22.5 10.8333,22.5 10.5,22.5C 9.5,16.1667 5.83333,12.5 -0.5,11.5C -0.5,11.1667 -0.5,10.8333 -0.5,10.5C -0.166667,10.5 0.166667,10.5 0.5,10.5C 3.77659,10.7839 6.94325,10.4505 10,9.5C 10.498,6.51838 10.6646,3.51838 10.5,0.5C 10.5,0.166667 10.5,-0.166667 10.5,-0.5 Z"/></g>
</svg>
