<?xml version="1.0" encoding="UTF-8"?>
<!DOCTYPE svg PUBLIC "-//W3C//DTD SVG 1.1//EN" "http://www.w3.org/Graphics/SVG/1.1/DTD/svg11.dtd">
<svg xmlns="http://www.w3.org/2000/svg" version="1.1" width="19px" height="19px" style="shape-rendering:geometricPrecision; text-rendering:geometricPrecision; image-rendering:optimizeQuality; fill-rule:evenodd; clip-rule:evenodd" xmlns:xlink="http://www.w3.org/1999/xlink">
<g><path style="opacity:1" fill="#000001" d="M -0.5,-0.5 C 0.833333,-0.5 2.16667,-0.5 3.5,-0.5C 3.5,0.166667 3.5,0.833333 3.5,1.5C 2.85013,1.19607 2.18346,0.862734 1.5,0.5C 0.519979,3.08645 0.186646,5.75312 0.5,8.5C 0.804071,10.7957 1.80407,11.129 3.5,9.5C 2.81658,11.1765 1.48324,11.8432 -0.5,11.5C -0.5,7.5 -0.5,3.5 -0.5,-0.5 Z"/></g>
<g><path style="opacity:1" fill="#6f7575" d="M 3.5,1.5 C 3.821,4.57693 2.821,6.91026 0.5,8.5C 0.186646,5.75312 0.519979,3.08645 1.5,0.5C 2.18346,0.862734 2.85013,1.19607 3.5,1.5 Z"/></g>
<g><path style="opacity:1" fill="#606566" d="M 13.5,1.5 C 13.8016,4.0593 13.4682,6.39263 12.5,8.5C 12.5,7.5 12.5,6.5 12.5,5.5C 11.1779,5.33003 10.0113,5.66337 9,6.5C 8.05127,4.90691 6.88461,3.57357 5.5,2.5C 5.5,2.16667 5.5,1.83333 5.5,1.5C 8.16667,0.166667 10.8333,0.166667 13.5,1.5 Z"/></g>
<g><path style="opacity:1" fill="#4b5150" d="M 15.5,3.5 C 16.5,3.83333 17.1667,4.5 17.5,5.5C 17.1788,7.04814 16.1788,7.71481 14.5,7.5C 14.2322,5.90097 14.5655,4.56764 15.5,3.5 Z"/></g>
<g><path style="opacity:1" fill="#282416" d="M 3.5,1.5 C 4.16667,1.5 4.83333,1.5 5.5,1.5C 5.5,1.83333 5.5,2.16667 5.5,2.5C 5.5,4.5 5.5,6.5 5.5,8.5C 7.83333,8.5 10.1667,8.5 12.5,8.5C 13.4682,6.39263 13.8016,4.0593 13.5,1.5C 14.5,1.83333 15.1667,2.5 15.5,3.5C 14.5655,4.56764 14.2322,5.90097 14.5,7.5C 16.1788,7.71481 17.1788,7.04814 17.5,5.5C 17.8333,5.5 18.1667,5.5 18.5,5.5C 18.5,6.5 18.5,7.5 18.5,8.5C 15.1216,7.89108 13.1216,9.22441 12.5,12.5C 11.8485,11.9094 11.1818,11.2427 10.5,10.5C 10.3962,12.4846 9.06287,13.9846 6.5,15C 7.94227,15.3768 8.94227,16.2101 9.5,17.5C 6.91791,17.9746 4.91791,17.3079 3.5,15.5C 4.47565,14.1851 5.47565,12.8518 6.5,11.5C 5.99525,10.0815 4.99525,9.41483 3.5,9.5C 1.80407,11.129 0.804071,10.7957 0.5,8.5C 2.821,6.91026 3.821,4.57693 3.5,1.5 Z"/></g>
<g><path style="opacity:1" fill="#545c59" d="M 5.5,2.5 C 6.88461,3.57357 8.05127,4.90691 9,6.5C 10.0113,5.66337 11.1779,5.33003 12.5,5.5C 12.5,6.5 12.5,7.5 12.5,8.5C 10.1667,8.5 7.83333,8.5 5.5,8.5C 5.5,6.5 5.5,4.5 5.5,2.5 Z"/></g>
<g><path style="opacity:1" fill="#5f6464" d="M 12.5,12.5 C 13.8333,13.1667 14.8333,14.1667 15.5,15.5C 14.0821,17.3079 12.0821,17.9746 9.5,17.5C 8.94227,16.2101 7.94227,15.3768 6.5,15C 9.06287,13.9846 10.3962,12.4846 10.5,10.5C 11.1818,11.2427 11.8485,11.9094 12.5,12.5 Z"/></g>
<g><path style="opacity:1" fill="#000001" d="M 3.5,15.5 C 4.91791,17.3079 6.91791,17.9746 9.5,17.5C 12.0821,17.9746 14.0821,17.3079 15.5,15.5C 16.404,16.209 16.7373,17.209 16.5,18.5C 11.8333,18.5 7.16667,18.5 2.5,18.5C 2.26269,17.209 2.59603,16.209 3.5,15.5 Z"/></g>
</svg>
