<?xml version="1.0" encoding="UTF-8"?>
<!DOCTYPE svg PUBLIC "-//W3C//DTD SVG 1.1//EN" "http://www.w3.org/Graphics/SVG/1.1/DTD/svg11.dtd">
<svg xmlns="http://www.w3.org/2000/svg" version="1.1" width="16px" height="20px" style="shape-rendering:geometricPrecision; text-rendering:geometricPrecision; image-rendering:optimizeQuality; fill-rule:evenodd; clip-rule:evenodd" xmlns:xlink="http://www.w3.org/1999/xlink">
<g><path style="opacity:1" fill="#000001" d="M 4.5,-0.5 C 5.5,-0.5 6.5,-0.5 7.5,-0.5C 7.5,-0.166667 7.5,0.166667 7.5,0.5C 5.83333,1.16667 4.16667,1.83333 2.5,2.5C 3.16667,1.5 3.83333,0.5 4.5,-0.5 Z"/></g>
<g><path style="opacity:1" fill="#13100e" d="M 7.5,0.5 C 8.79105,0.262695 9.79105,0.596028 10.5,1.5C 9.39105,1.55688 8.39105,1.89022 7.5,2.5C 7.5,1.83333 7.5,1.16667 7.5,0.5 Z"/></g>
<g><path style="opacity:1" fill="#b89c71" d="M 10.5,1.5 C 10.1307,3.99349 10.7973,4.66015 12.5,3.5C 12.2882,5.38411 11.2882,6.71745 9.5,7.5C 9.23778,6.04419 8.57111,4.37752 7.5,2.5C 8.39105,1.89022 9.39105,1.55688 10.5,1.5 Z"/></g>
<g><path style="opacity:1" fill="#000001" d="M 2.5,2.5 C 2.57298,4.02694 1.90632,5.02694 0.5,5.5C 0.427017,3.97306 1.09368,2.97306 2.5,2.5 Z"/></g>
<g><path style="opacity:1" fill="#a68d66" d="M 7.5,0.5 C 7.5,1.16667 7.5,1.83333 7.5,2.5C 5.12104,3.56188 5.12104,4.89521 7.5,6.5C 4.87528,7.53428 4.87528,8.53428 7.5,9.5C 7.55999,8.95691 7.89333,8.62358 8.5,8.5C 9.62235,9.63023 10.9557,10.2969 12.5,10.5C 11.8413,13.4552 11.5079,16.4552 11.5,19.5C 8.83333,19.5 6.16667,19.5 3.5,19.5C 4.34277,14.9057 3.00944,11.2391 -0.5,8.5C -0.5,7.5 -0.5,6.5 -0.5,5.5C -0.166667,5.5 0.166667,5.5 0.5,5.5C 1.90632,5.02694 2.57298,4.02694 2.5,2.5C 4.16667,1.83333 5.83333,1.16667 7.5,0.5 Z"/></g>
<g><path style="opacity:1" fill="#453b2e" d="M 7.5,2.5 C 8.57111,4.37752 9.23778,6.04419 9.5,7.5C 11.2882,6.71745 12.2882,5.38411 12.5,3.5C 13.5,3.83333 14.1667,4.5 14.5,5.5C 12.1939,6.37504 11.5272,7.70837 12.5,9.5C 13.8333,9.83333 13.8333,10.1667 12.5,10.5C 10.9557,10.2969 9.62235,9.63023 8.5,8.5C 7.89333,8.62358 7.55999,8.95691 7.5,9.5C 4.87528,8.53428 4.87528,7.53428 7.5,6.5C 5.12104,4.89521 5.12104,3.56188 7.5,2.5 Z"/></g>
<g><path style="opacity:1" fill="#2b261f" d="M 10.5,1.5 C 11.5,1.83333 12.1667,2.5 12.5,3.5C 10.7973,4.66015 10.1307,3.99349 10.5,1.5 Z"/></g>
<g><path style="opacity:1" fill="#97805d" d="M 14.5,5.5 C 14.8333,5.5 15.1667,5.5 15.5,5.5C 15.5,6.16667 15.5,6.83333 15.5,7.5C 15.1667,7.5 14.8333,7.5 14.5,7.5C 13.5,7.83333 12.8333,8.5 12.5,9.5C 11.5272,7.70837 12.1939,6.37504 14.5,5.5 Z"/></g>
<g><path style="opacity:1" fill="#060505" d="M 14.5,7.5 C 13.6245,11.4616 12.9578,15.4616 12.5,19.5C 12.1667,19.5 11.8333,19.5 11.5,19.5C 11.5079,16.4552 11.8413,13.4552 12.5,10.5C 13.8333,10.1667 13.8333,9.83333 12.5,9.5C 12.8333,8.5 13.5,7.83333 14.5,7.5 Z"/></g>
<g><path style="opacity:1" fill="#453c2e" d="M 7.5,9.5 C 9.8949,10.8816 10.3949,12.5483 9,14.5C 8.68238,12.9391 7.84905,11.7724 6.5,11C 7.05596,10.6174 7.38929,10.1174 7.5,9.5 Z"/></g>
</svg>
