<?xml version="1.0" encoding="UTF-8"?>
<!DOCTYPE svg PUBLIC "-//W3C//DTD SVG 1.1//EN" "http://www.w3.org/Graphics/SVG/1.1/DTD/svg11.dtd">
<svg xmlns="http://www.w3.org/2000/svg" version="1.1" width="25px" height="13px" style="shape-rendering:geometricPrecision; text-rendering:geometricPrecision; image-rendering:optimizeQuality; fill-rule:evenodd; clip-rule:evenodd" xmlns:xlink="http://www.w3.org/1999/xlink">
<g><path style="opacity:1" fill="#000001" d="M 5.5,-0.5 C 9.83333,-0.5 14.1667,-0.5 18.5,-0.5C 20.7278,0.377058 22.7278,1.71039 24.5,3.5C 24.5,5.16667 24.5,6.83333 24.5,8.5C 21.1259,9.83203 17.7926,11.1654 14.5,12.5C 12.8333,12.5 11.1667,12.5 9.5,12.5C 6.20743,11.1654 2.8741,9.83203 -0.5,8.5C -0.5,6.83333 -0.5,5.16667 -0.5,3.5C 1.27224,1.71039 3.27224,0.377058 5.5,-0.5 Z M 4.5,3.5 C 6.16667,3.5 7.83333,3.5 9.5,3.5C 9.92277,6.24313 8.75611,7.57646 6,7.5C 2.15099,7.18503 1.65099,5.85169 4.5,3.5 Z M 14.5,3.5 C 17.3456,3.03008 19.6789,3.86341 21.5,6C 19.728,7.4868 17.728,7.82013 15.5,7C 14.6634,5.98873 14.33,4.82207 14.5,3.5 Z"/></g>
</svg>
