<?xml version="1.0" encoding="UTF-8"?>
<!DOCTYPE svg PUBLIC "-//W3C//DTD SVG 1.1//EN" "http://www.w3.org/Graphics/SVG/1.1/DTD/svg11.dtd">
<svg xmlns="http://www.w3.org/2000/svg" version="1.1" width="25px" height="25px" style="shape-rendering:geometricPrecision; text-rendering:geometricPrecision; image-rendering:optimizeQuality; fill-rule:evenodd; clip-rule:evenodd" xmlns:xlink="http://www.w3.org/1999/xlink">
<g><path style="opacity:1" fill="#000001" d="M 20.5,0.5 C 20.5,0.166667 20.5,-0.166667 20.5,-0.5C 21.8333,-0.5 23.1667,-0.5 24.5,-0.5C 24.5,0.833333 24.5,2.16667 24.5,3.5C 24.1667,3.5 23.8333,3.5 23.5,3.5C 23.5,2.5 23.5,1.5 23.5,0.5C 22.5,0.5 21.5,0.5 20.5,0.5 Z"/></g>
<g><path style="opacity:1" fill="#535757" d="M 20.5,0.5 C 21.5,0.5 22.5,0.5 23.5,0.5C 23.5,1.5 23.5,2.5 23.5,3.5C 19.1667,8.5 14.5,13.1667 9.5,17.5C 9.16667,17.5 8.83333,17.5 8.5,17.5C 7.5,17.1667 6.83333,16.5 6.5,15.5C 6.5,15.1667 6.5,14.8333 6.5,14.5C 10.8333,9.5 15.5,4.83333 20.5,0.5 Z"/></g>
<g><path style="opacity:1" fill="#000001" d="M 6.5,14.5 C 6.5,14.8333 6.5,15.1667 6.5,15.5C 4.71199,15.2148 3.04533,15.5481 1.5,16.5C 2.24269,17.1818 2.90935,17.8485 3.5,18.5C -0.5,23.8333 0.166667,24.5 5.5,20.5C 6.15149,21.0906 6.81815,21.7573 7.5,22.5C 8.45189,20.9547 8.78522,19.288 8.5,17.5C 8.83333,17.5 9.16667,17.5 9.5,17.5C 9.5,19.5 9.5,21.5 9.5,23.5C 7.85613,23.7135 6.35613,23.3802 5,22.5C 4.28281,23.0442 3.78281,23.7109 3.5,24.5C 2.16667,24.5 0.833333,24.5 -0.5,24.5C -0.5,23.1667 -0.5,21.8333 -0.5,20.5C 0.28913,20.2172 0.955796,19.7172 1.5,19C 0.619828,17.6439 0.286495,16.1439 0.5,14.5C 2.5,14.5 4.5,14.5 6.5,14.5 Z"/></g>
<g><path style="opacity:1" fill="#867809" d="M 6.5,15.5 C 6.83333,16.5 7.5,17.1667 8.5,17.5C 8.78522,19.288 8.45189,20.9547 7.5,22.5C 6.81815,21.7573 6.15149,21.0906 5.5,20.5C 5.16667,19.5 4.5,18.8333 3.5,18.5C 2.90935,17.8485 2.24269,17.1818 1.5,16.5C 3.04533,15.5481 4.71199,15.2148 6.5,15.5 Z"/></g>
<g><path style="opacity:1" fill="#564a2c" d="M 3.5,18.5 C 4.5,18.8333 5.16667,19.5 5.5,20.5C 0.166667,24.5 -0.5,23.8333 3.5,18.5 Z"/></g>
</svg>
