<?xml version="1.0" encoding="UTF-8"?>
<!DOCTYPE svg PUBLIC "-//W3C//DTD SVG 1.1//EN" "http://www.w3.org/Graphics/SVG/1.1/DTD/svg11.dtd">
<svg xmlns="http://www.w3.org/2000/svg" version="1.1" width="17px" height="19px" style="shape-rendering:geometricPrecision; text-rendering:geometricPrecision; image-rendering:optimizeQuality; fill-rule:evenodd; clip-rule:evenodd" xmlns:xlink="http://www.w3.org/1999/xlink">
<g><path style="opacity:1" fill="#000001" d="M -0.5,-0.5 C 5.16667,-0.5 10.8333,-0.5 16.5,-0.5C 16.5,4.16667 16.5,8.83333 16.5,13.5C 16.1667,13.5 15.8333,13.5 15.5,13.5C 15.5,9.16667 15.5,4.83333 15.5,0.5C 12.1667,0.5 8.83333,0.5 5.5,0.5C 3.83333,0.5 2.16667,0.5 0.5,0.5C 0.5,4.83333 0.5,9.16667 0.5,13.5C 0.166667,13.5 -0.166667,13.5 -0.5,13.5C -0.5,8.83333 -0.5,4.16667 -0.5,-0.5 Z"/></g>
<g><path style="opacity:1" fill="#474d4c" d="M 5.5,0.5 C 4.65859,2.3792 4.32526,4.3792 4.5,6.5C 1.83333,7.5 1.83333,8.5 4.5,9.5C 3.3373,15.3335 5.67064,18.0002 11.5,17.5C 11.5,17.8333 11.5,18.1667 11.5,18.5C 9.16667,18.5 6.83333,18.5 4.5,18.5C 3.16667,16.8333 1.83333,15.1667 0.5,13.5C 0.5,9.16667 0.5,4.83333 0.5,0.5C 2.16667,0.5 3.83333,0.5 5.5,0.5 Z"/></g>
<g><path style="opacity:1" fill="#7f8684" d="M 5.5,0.5 C 8.83333,0.5 12.1667,0.5 15.5,0.5C 15.5,4.83333 15.5,9.16667 15.5,13.5C 14.5,15.1667 13.1667,16.5 11.5,17.5C 5.67064,18.0002 3.3373,15.3335 4.5,9.5C 6.25605,10.5521 6.92271,12.2188 6.5,14.5C 7.5,14.5 8.5,14.5 9.5,14.5C 9.5,12.8333 9.5,11.1667 9.5,9.5C 10.8333,9.5 12.1667,9.5 13.5,9.5C 13.5,8.5 13.5,7.5 13.5,6.5C 12.1667,6.5 10.8333,6.5 9.5,6.5C 9.5,5.16667 9.5,3.83333 9.5,2.5C 8.5,2.5 7.5,2.5 6.5,2.5C 6.84316,4.48324 6.17649,5.81658 4.5,6.5C 4.32526,4.3792 4.65859,2.3792 5.5,0.5 Z"/></g>
<g><path style="opacity:1" fill="#000001" d="M 4.5,9.5 C 1.83333,8.5 1.83333,7.5 4.5,6.5C 6.17649,5.81658 6.84316,4.48324 6.5,2.5C 7.5,2.5 8.5,2.5 9.5,2.5C 9.5,3.83333 9.5,5.16667 9.5,6.5C 10.8333,6.5 12.1667,6.5 13.5,6.5C 13.5,7.5 13.5,8.5 13.5,9.5C 12.1667,9.5 10.8333,9.5 9.5,9.5C 9.5,11.1667 9.5,12.8333 9.5,14.5C 8.5,14.5 7.5,14.5 6.5,14.5C 6.92271,12.2188 6.25605,10.5521 4.5,9.5 Z"/></g>
</svg>
