<?xml version="1.0" encoding="UTF-8"?>
<!DOCTYPE svg PUBLIC "-//W3C//DTD SVG 1.1//EN" "http://www.w3.org/Graphics/SVG/1.1/DTD/svg11.dtd">
<svg xmlns="http://www.w3.org/2000/svg" version="1.1" width="25px" height="23px" style="shape-rendering:geometricPrecision; text-rendering:geometricPrecision; image-rendering:optimizeQuality; fill-rule:evenodd; clip-rule:evenodd" xmlns:xlink="http://www.w3.org/1999/xlink">
<g><path style="opacity:1" fill="#353230" d="M 11.5,-0.5 C 13.5,-0.5 15.5,-0.5 17.5,-0.5C 19.3385,2.1725 20.5051,5.1725 21,8.5C 22.0391,9.7101 23.2058,10.7101 24.5,11.5C 24.5,13.1667 24.5,14.8333 24.5,16.5C 22.5,17.8333 20.5,19.1667 18.5,20.5C 18.67,19.1779 18.3366,18.0113 17.5,17C 19.3959,15.1917 19.8959,13.025 19,10.5C 18.1841,9.17723 17.0174,8.51056 15.5,8.5C 15.1667,8.5 14.8333,8.5 14.5,8.5C 14.5,8.16667 14.5,7.83333 14.5,7.5C 19.8333,6.5 19.8333,5.5 14.5,4.5C 13.5,4.5 12.5,4.5 11.5,4.5C 11.0133,5.47344 10.5133,6.47344 10,7.5C 9.78997,5.94186 9.28997,4.60853 8.5,3.5C 8.77055,1.56954 9.77055,0.236209 11.5,-0.5 Z"/></g>
<g><path style="opacity:1" fill="#000001" d="M 8.5,3.5 C 7.9492,6.80673 7.61587,10.1401 7.5,13.5C 6.65536,12.3285 5.98869,10.9952 5.5,9.5C 6.20278,7.37134 7.20278,5.37134 8.5,3.5 Z"/></g>
<g><path style="opacity:1" fill="#5661ff" d="M 14.5,4.5 C 19.8333,5.5 19.8333,6.5 14.5,7.5C 13.448,7.64945 12.448,7.48278 11.5,7C 12.5707,6.14825 13.5707,5.31491 14.5,4.5 Z"/></g>
<g><path style="opacity:1" fill="#413f3c" d="M 5.5,9.5 C 5.98869,10.9952 6.65536,12.3285 7.5,13.5C 7.5,15.8333 7.5,18.1667 7.5,20.5C 5.77548,17.3755 4.27548,14.0421 3,10.5C 1.88732,9.69499 0.72065,9.02832 -0.5,8.5C -0.5,7.83333 -0.5,7.16667 -0.5,6.5C 3.93472,3.40414 5.93472,4.40414 5.5,9.5 Z"/></g>
<g><path style="opacity:1" fill="#6f6961" d="M 8.5,3.5 C 9.28997,4.60853 9.78997,5.94186 10,7.5C 10.5133,6.47344 11.0133,5.47344 11.5,4.5C 12.5,4.5 13.5,4.5 14.5,4.5C 13.5707,5.31491 12.5707,6.14825 11.5,7C 12.448,7.48278 13.448,7.64945 14.5,7.5C 14.5,7.83333 14.5,8.16667 14.5,8.5C 13.1667,8.5 11.8333,8.5 10.5,8.5C 10.5,12.8333 10.5,17.1667 10.5,21.5C 9.20895,21.7373 8.20895,21.404 7.5,20.5C 7.5,18.1667 7.5,15.8333 7.5,13.5C 7.61587,10.1401 7.9492,6.80673 8.5,3.5 Z"/></g>
<g><path style="opacity:1" fill="#8e867e" d="M 14.5,8.5 C 14.8333,8.5 15.1667,8.5 15.5,8.5C 15.5,12.8333 15.5,17.1667 15.5,21.5C 13.8333,21.5 12.1667,21.5 10.5,21.5C 10.5,17.1667 10.5,12.8333 10.5,8.5C 11.8333,8.5 13.1667,8.5 14.5,8.5 Z"/></g>
<g><path style="opacity:1" fill="#6b645d" d="M 15.5,8.5 C 17.0174,8.51056 18.1841,9.17723 19,10.5C 19.8959,13.025 19.3959,15.1917 17.5,17C 18.3366,18.0113 18.67,19.1779 18.5,20.5C 17.8333,21.1667 17.1667,21.8333 16.5,22.5C 14.5,22.5 12.5,22.5 10.5,22.5C 10.5,22.1667 10.5,21.8333 10.5,21.5C 12.1667,21.5 13.8333,21.5 15.5,21.5C 15.5,17.1667 15.5,12.8333 15.5,8.5 Z"/></g>
</svg>
