<?xml version="1.0" encoding="UTF-8"?>
<!DOCTYPE svg PUBLIC "-//W3C//DTD SVG 1.1//EN" "http://www.w3.org/Graphics/SVG/1.1/DTD/svg11.dtd">
<svg xmlns="http://www.w3.org/2000/svg" version="1.1" width="24px" height="23px" style="shape-rendering:geometricPrecision; text-rendering:geometricPrecision; image-rendering:optimizeQuality; fill-rule:evenodd; clip-rule:evenodd" xmlns:xlink="http://www.w3.org/1999/xlink">
<g><path style="opacity:1" fill="#000001" d="M 7.5,-0.5 C 9.5,-0.5 11.5,-0.5 13.5,-0.5C 13.8333,0.166667 14.1667,0.833333 14.5,1.5C 11.1785,0.118818 8.01183,0.452151 5,2.5C 3.15975,1.16686 2.65975,1.33353 3.5,3C 5.93132,3.25208 8.26465,2.75208 10.5,1.5C 12.6737,3.44026 15.007,3.7736 17.5,2.5C 20.0287,2.64988 20.6954,3.64988 19.5,5.5C 18.8485,4.90935 18.1818,4.24269 17.5,3.5C 13.3676,3.52325 9.20098,3.85659 5,4.5C 2.99066,4.24214 1.15733,3.57547 -0.5,2.5C -0.5,2.16667 -0.5,1.83333 -0.5,1.5C 2.33033,1.03718 4.997,0.370512 7.5,-0.5 Z"/></g>
<g><path style="opacity:1" fill="#474138" d="M 14.5,1.5 C 14.8333,1.5 15.1667,1.5 15.5,1.5C 17.1992,1.33982 18.8659,1.50649 20.5,2C 21.985,3.75649 21.6516,4.92315 19.5,5.5C 20.6954,3.64988 20.0287,2.64988 17.5,2.5C 15.007,3.7736 12.6737,3.44026 10.5,1.5C 8.26465,2.75208 5.93132,3.25208 3.5,3C 2.65975,1.33353 3.15975,1.16686 5,2.5C 8.01183,0.452151 11.1785,0.118818 14.5,1.5 Z"/></g>
<g><path style="opacity:1" fill="#000001" d="M 15.5,1.5 C 21.3265,-1.02071 23.6599,0.979288 22.5,7.5C 19.6592,7.55975 16.9925,8.22642 14.5,9.5C 12.2866,7.68827 9.95329,7.35493 7.5,8.5C 6.52656,8.01328 5.52656,7.51328 4.5,7C 8.0286,6.3779 11.5286,6.54457 15,7.5C 16.876,7.47528 18.376,6.80862 19.5,5.5C 21.6516,4.92315 21.985,3.75649 20.5,2C 18.8659,1.50649 17.1992,1.33982 15.5,1.5 Z"/></g>
<g><path style="opacity:1" fill="#5a5e5f" d="M 14.5,9.5 C 12.7085,9.36596 11.0418,9.69929 9.5,10.5C 8.83333,10.5 8.16667,10.5 7.5,10.5C 6.76109,10.631 6.09442,10.4643 5.5,10C 6.4158,9.72158 7.08247,9.22158 7.5,8.5C 9.95329,7.35493 12.2866,7.68827 14.5,9.5 Z"/></g>
<g><path style="opacity:1" fill="#6d7373" d="M 22.5,7.5 C 22.5,8.16667 22.5,8.83333 22.5,9.5C 21.8333,9.83333 21.1667,10.1667 20.5,10.5C 19.3774,9.24258 18.7107,9.57591 18.5,11.5C 17.6715,12.3324 16.8382,11.999 16,10.5C 14.6403,13.0226 12.807,15.0226 10.5,16.5C 8.94844,18.3425 7.28178,20.0092 5.5,21.5C 4.95218,19.4677 3.61885,18.4677 1.5,18.5C 0.833333,18.5 0.5,18.1667 0.5,17.5C 0.619985,16.4138 1.28665,15.7472 2.5,15.5C 4.56798,16.6534 6.56798,16.6534 8.5,15.5C 11.5,14.5 13.5,12.5 14.5,9.5C 16.9925,8.22642 19.6592,7.55975 22.5,7.5 Z"/></g>
<g><path style="opacity:1" fill="#000001" d="M 22.5,7.5 C 22.8333,7.5 23.1667,7.5 23.5,7.5C 23.5,9.16667 23.5,10.8333 23.5,12.5C 22.8333,12.8333 22.1667,13.1667 21.5,13.5C 21.8333,12.1667 22.1667,10.8333 22.5,9.5C 22.5,8.83333 22.5,8.16667 22.5,7.5 Z"/></g>
<g><path style="opacity:1" fill="#434847" d="M 14.5,9.5 C 13.5,12.5 11.5,14.5 8.5,15.5C 8.57735,14.2502 9.24402,13.4169 10.5,13C 8.38077,12.6582 8.04744,11.8249 9.5,10.5C 11.0418,9.69929 12.7085,9.36596 14.5,9.5 Z"/></g>
<g><path style="opacity:1" fill="#000001" d="M 20.5,10.5 C 19.8333,10.8333 19.1667,11.1667 18.5,11.5C 18.7107,9.57591 19.3774,9.24258 20.5,10.5 Z"/></g>
<g><path style="opacity:1" fill="#565d5c" d="M 22.5,9.5 C 22.1667,10.8333 21.8333,12.1667 21.5,13.5C 19.597,13.7959 17.9303,14.4625 16.5,15.5C 14.6208,16.3414 12.6208,16.6747 10.5,16.5C 12.807,15.0226 14.6403,13.0226 16,10.5C 16.8382,11.999 17.6715,12.3324 18.5,11.5C 19.1667,11.1667 19.8333,10.8333 20.5,10.5C 21.1667,10.1667 21.8333,9.83333 22.5,9.5 Z"/></g>
<g><path style="opacity:1" fill="#000001" d="M 7.5,10.5 C 8.16667,10.5 8.83333,10.5 9.5,10.5C 8.04744,11.8249 8.38077,12.6582 10.5,13C 9.24402,13.4169 8.57735,14.2502 8.5,15.5C 6.56798,16.6534 4.56798,16.6534 2.5,15.5C 1.28665,15.7472 0.619985,16.4138 0.5,17.5C 0.166667,17.5 -0.166667,17.5 -0.5,17.5C -0.5,16.5 -0.5,15.5 -0.5,14.5C 1.7925,14.2436 3.95917,14.5769 6,15.5C 8.16667,14 8,12.8333 5.5,12C 6.4158,11.7216 7.08247,11.2216 7.5,10.5 Z"/></g>
<g><path style="opacity:1" fill="#000001" d="M 21.5,13.5 C 20.0927,15.3083 18.926,17.3083 18,19.5C 16.9887,20.3366 15.8221,20.67 14.5,20.5C 14.5,19.5 14.5,18.5 14.5,17.5C 11.2429,17.7637 9.24286,19.4304 8.5,22.5C 7.5,22.5 6.5,22.5 5.5,22.5C 5.5,22.1667 5.5,21.8333 5.5,21.5C 7.28178,20.0092 8.94844,18.3425 10.5,16.5C 12.6208,16.6747 14.6208,16.3414 16.5,15.5C 17.9303,14.4625 19.597,13.7959 21.5,13.5 Z"/></g>
<g><path style="opacity:1" fill="#676d6d" d="M 16.5,15.5 C 17.2389,15.369 17.9056,15.5357 18.5,16C 15.856,20.8385 15.1893,20.6718 16.5,15.5 Z"/></g>
<g><path style="opacity:1" fill="#000001" d="M 1.5,18.5 C 3.61885,18.4677 4.95218,19.4677 5.5,21.5C 3.87841,20.8776 2.54508,19.8776 1.5,18.5 Z"/></g>
</svg>
