<?xml version="1.0" encoding="UTF-8"?>
<!DOCTYPE svg PUBLIC "-//W3C//DTD SVG 1.1//EN" "http://www.w3.org/Graphics/SVG/1.1/DTD/svg11.dtd">
<svg xmlns="http://www.w3.org/2000/svg" version="1.1" width="23px" height="23px" style="shape-rendering:geometricPrecision; text-rendering:geometricPrecision; image-rendering:optimizeQuality; fill-rule:evenodd; clip-rule:evenodd" xmlns:xlink="http://www.w3.org/1999/xlink">
<g><path style="opacity:1" fill="#512a0c" d="M 0.5,-0.5 C 0.833333,-0.5 1.16667,-0.5 1.5,-0.5C 3.16667,2.16667 4.83333,2.16667 6.5,-0.5C 8.5,-0.5 10.5,-0.5 12.5,-0.5C 13.6935,0.271873 14.6935,1.27187 15.5,2.5C 15.5,3.83333 15.5,5.16667 15.5,6.5C 13.9743,5.89527 12.9743,4.72861 12.5,3C 9.78844,2.17416 7.45511,2.67416 5.5,4.5C 4.07546,2.96895 3.40879,3.30228 3.5,5.5C 2.16667,4.5 0.833333,3.5 -0.5,2.5C -0.5,1.83333 -0.5,1.16667 -0.5,0.5C 0.166667,0.5 0.5,0.166667 0.5,-0.5 Z"/></g>
<g><path style="opacity:1" fill="#131211" d="M 19.5,6.5 C 18.1667,6.5 16.8333,6.5 15.5,6.5C 15.5,5.16667 15.5,3.83333 15.5,2.5C 17.2821,1.28043 19.2821,0.613767 21.5,0.5C 21.5,1.83333 21.5,3.16667 21.5,4.5C 19.0065,4.13068 18.3398,4.79734 19.5,6.5 Z"/></g>
<g><path style="opacity:1" fill="#793d08" d="M 18.5,2.5 C 19.0768,1.22671 19.7435,1.22671 20.5,2.5C 20.0302,3.46295 19.3635,3.46295 18.5,2.5 Z"/></g>
<g><path style="opacity:1" fill="#0c0a06" d="M 15.5,6.5 C 16.1047,8.02568 17.2714,9.02568 19,9.5C 19.8258,12.2116 19.3258,14.5449 17.5,16.5C 16.8333,16.5 16.5,16.1667 16.5,15.5C 19.4998,12.8507 19.1664,10.8507 15.5,9.5C 13.9623,9.45344 12.9623,10.1201 12.5,11.5C 11.1667,11.5 10.5,10.8333 10.5,9.5C 12.3769,8.34088 12.8769,6.67422 12,4.5C 9.88236,3.26127 8.04903,3.59461 6.5,5.5C 5.83333,5.5 5.5,5.16667 5.5,4.5C 7.45511,2.67416 9.78844,2.17416 12.5,3C 12.9743,4.72861 13.9743,5.89527 15.5,6.5 Z"/></g>
<g><path style="opacity:1" fill="#522a0c" d="M 15.5,6.5 C 16.8333,6.5 18.1667,6.5 19.5,6.5C 20.7281,7.30646 21.7281,8.30646 22.5,9.5C 22.5,11.5 22.5,13.5 22.5,15.5C 19.8333,17.1667 19.8333,18.8333 22.5,20.5C 22.5,20.8333 22.5,21.1667 22.5,21.5C 21.8333,21.5 21.5,21.8333 21.5,22.5C 20.8333,22.5 20.1667,22.5 19.5,22.5C 18.8333,21.5 18.1667,20.5 17.5,19.5C 18.8333,18.5 18.8333,17.5 17.5,16.5C 19.3258,14.5449 19.8258,12.2116 19,9.5C 17.2714,9.02568 16.1047,8.02568 15.5,6.5 Z"/></g>
<g><path style="opacity:1" fill="#464949" d="M 5.5,4.5 C 5.5,5.16667 5.83333,5.5 6.5,5.5C 8.16667,6.5 9.5,7.83333 10.5,9.5C 10.5,10.8333 11.1667,11.5 12.5,11.5C 14.1667,12.5 15.5,13.8333 16.5,15.5C 16.5,16.1667 16.8333,16.5 17.5,16.5C 18.8333,17.5 18.8333,18.5 17.5,19.5C 15.1667,17.8333 13.1667,15.8333 11.5,13.5C 10.5,12.5 9.5,11.5 8.5,10.5C 6.5,9.16667 4.83333,7.5 3.5,5.5C 3.40879,3.30228 4.07546,2.96895 5.5,4.5 Z"/></g>
<g><path style="opacity:1" fill="#0a0805" d="M 8.5,10.5 C 9.5,11.5 10.5,12.5 11.5,13.5C 10.0221,14.4475 9.02211,15.7809 8.5,17.5C 8.83333,14.5 7.5,13.1667 4.5,13.5C 6.21914,12.9779 7.55247,11.9779 8.5,10.5 Z"/></g>
<g><path style="opacity:1" fill="#19550b" d="M 4.5,13.5 C 7.5,13.1667 8.83333,14.5 8.5,17.5C 8.16667,18.5 7.5,19.1667 6.5,19.5C 5.59603,18.791 5.26269,17.791 5.5,16.5C 4.20895,16.7373 3.20895,16.404 2.5,15.5C 2.83333,14.5 3.5,13.8333 4.5,13.5 Z"/></g>
<g><path style="opacity:1" fill="#070604" d="M 2.5,15.5 C 3.20895,16.404 4.20895,16.7373 5.5,16.5C 5.26269,17.791 5.59603,18.791 6.5,19.5C 6.44001,20.0431 6.10667,20.3764 5.5,20.5C 4.5,18.8333 3.16667,17.5 1.5,16.5C 1.62358,15.8933 1.95691,15.56 2.5,15.5 Z"/></g>
</svg>
