<?xml version="1.0" encoding="UTF-8"?>
<!DOCTYPE svg PUBLIC "-//W3C//DTD SVG 1.1//EN" "http://www.w3.org/Graphics/SVG/1.1/DTD/svg11.dtd">
<svg xmlns="http://www.w3.org/2000/svg" version="1.1" width="25px" height="25px" style="shape-rendering:geometricPrecision; text-rendering:geometricPrecision; image-rendering:optimizeQuality; fill-rule:evenodd; clip-rule:evenodd" xmlns:xlink="http://www.w3.org/1999/xlink">
<g><path style="opacity:1" fill="#020001" d="M 9.5,2.5 C 11.165,5.31637 10.8317,7.81637 8.5,10C 9.02527,10.6924 9.69194,11.1924 10.5,11.5C 11.2298,10.0663 12.2298,8.89963 13.5,8C 12.6681,6.09117 13.0015,4.25784 14.5,2.5C 15.5,2.83333 16.1667,3.5 16.5,4.5C 15.0806,6.15106 13.7473,7.98439 12.5,10C 14.6355,10.8763 15.9688,12.3763 16.5,14.5C 12.5959,16.2425 12.5959,17.9092 16.5,19.5C 16.1667,20.5 15.5,21.1667 14.5,21.5C 12.0253,18.78 12.0253,16.1134 14.5,13.5C 14.1667,13.1667 13.8333,12.8333 13.5,12.5C 12.3523,14.1487 11.019,15.6487 9.5,17C 10.7279,18.4902 10.7279,19.9902 9.5,21.5C 8.5,21.1667 7.83333,20.5 7.5,19.5C 9.76451,19.5594 10.0978,18.7261 8.5,17C 8.95043,15.7147 9.6171,14.548 10.5,13.5C 7.24974,11.9677 6.91641,10.1344 9.5,8C 8.16667,7 8.16667,6 9.5,5C 8.90558,4.53566 8.23891,4.36899 7.5,4.5C 7.83333,3.5 8.5,2.83333 9.5,2.5 Z"/></g>
<g><path style="opacity:1" fill="#873309" d="M 11.5,-0.5 C 11.8333,-0.5 12.1667,-0.5 12.5,-0.5C 13.1667,0.5 13.8333,1.5 14.5,2.5C 13.0015,4.25784 12.6681,6.09117 13.5,8C 12.2298,8.89963 11.2298,10.0663 10.5,11.5C 9.69194,11.1924 9.02527,10.6924 8.5,10C 10.8317,7.81637 11.165,5.31637 9.5,2.5C 10.1667,1.5 10.8333,0.5 11.5,-0.5 Z"/></g>
<g><path style="opacity:1" fill="#6e6d6c" d="M 16.5,4.5 C 18.674,4.74973 20.3406,5.74973 21.5,7.5C 21.7868,11.2151 20.1201,13.5485 16.5,14.5C 15.9688,12.3763 14.6355,10.8763 12.5,10C 13.7473,7.98439 15.0806,6.15106 16.5,4.5 Z"/></g>
<g><path style="opacity:1" fill="#686766" d="M 7.5,4.5 C 8.23891,4.36899 8.90558,4.53566 9.5,5C 8.16667,6 8.16667,7 9.5,8C 6.91641,10.1344 7.24974,11.9677 10.5,13.5C 9.6171,14.548 8.95043,15.7147 8.5,17C 10.0978,18.7261 9.76451,19.5594 7.5,19.5C 3.95445,18.6149 1.28779,16.6149 -0.5,13.5C -0.5,12.5 -0.5,11.5 -0.5,10.5C 1.28779,7.3851 3.95445,5.3851 7.5,4.5 Z"/></g>
<g><path style="opacity:1" fill="#434341" d="M 21.5,7.5 C 22.7281,8.30646 23.7281,9.30646 24.5,10.5C 24.5,11.5 24.5,12.5 24.5,13.5C 22.7122,16.6149 20.0455,18.6149 16.5,19.5C 12.5959,17.9092 12.5959,16.2425 16.5,14.5C 20.1201,13.5485 21.7868,11.2151 21.5,7.5 Z"/></g>
<g><path style="opacity:1" fill="#822f0a" d="M 14.5,21.5 C 13.8333,22.5 13.1667,23.5 12.5,24.5C 12.1667,24.5 11.8333,24.5 11.5,24.5C 10.8333,23.5 10.1667,22.5 9.5,21.5C 10.7279,19.9902 10.7279,18.4902 9.5,17C 11.019,15.6487 12.3523,14.1487 13.5,12.5C 13.8333,12.8333 14.1667,13.1667 14.5,13.5C 12.0253,16.1134 12.0253,18.78 14.5,21.5 Z"/></g>
</svg>
