<?xml version="1.0" encoding="UTF-8"?>
<!DOCTYPE svg PUBLIC "-//W3C//DTD SVG 1.1//EN" "http://www.w3.org/Graphics/SVG/1.1/DTD/svg11.dtd">
<svg xmlns="http://www.w3.org/2000/svg" version="1.1" width="23px" height="24px" style="shape-rendering:geometricPrecision; text-rendering:geometricPrecision; image-rendering:optimizeQuality; fill-rule:evenodd; clip-rule:evenodd" xmlns:xlink="http://www.w3.org/1999/xlink">
<g><path style="opacity:1" fill="#271e17" d="M 15.5,-0.5 C 16.5,-0.5 17.5,-0.5 18.5,-0.5C 19.1408,0.482236 19.8075,1.48224 20.5,2.5C 19.3698,3.62235 18.7031,4.95568 18.5,6.5C 16.0905,5.29931 14.0905,3.63265 12.5,1.5C 14.0269,1.57298 15.0269,0.906316 15.5,-0.5 Z"/></g>
<g><path style="opacity:1" fill="#888613" d="M 12.5,1.5 C 14.0905,3.63265 16.0905,5.29931 18.5,6.5C 20.3818,7.22104 20.7152,8.22104 19.5,9.5C 16.5251,8.34488 13.8584,6.67821 11.5,4.5C 7.82919,3.50825 7.66252,2.17492 11,0.5C 11.7648,0.569925 12.2648,0.903259 12.5,1.5 Z"/></g>
<g><path style="opacity:1" fill="#2d2c2b" d="M 11.5,4.5 C 13.8584,6.67821 16.5251,8.34488 19.5,9.5C 19.1667,10.1667 18.8333,10.8333 18.5,11.5C 16.4089,9.48918 14.7422,9.48918 13.5,11.5C 13.9118,9.02741 12.9118,7.69408 10.5,7.5C 10.5569,6.39105 10.8902,5.39105 11.5,4.5 Z"/></g>
<g><path style="opacity:1" fill="#000001" d="M 3.5,8.5 C 5.60737,7.53178 7.9407,7.19845 10.5,7.5C 10.1667,8.5 9.5,9.16667 8.5,9.5C 7.08134,8.54885 5.41467,8.21552 3.5,8.5 Z"/></g>
<g><path style="opacity:1" fill="#61605e" d="M 10.5,7.5 C 12.9118,7.69408 13.9118,9.02741 13.5,11.5C 11.3703,13.8934 8.70363,15.56 5.5,16.5C 5.55688,15.391 5.89022,14.391 6.5,13.5C 6.22911,11.6203 6.89578,10.287 8.5,9.5C 9.5,9.16667 10.1667,8.5 10.5,7.5 Z"/></g>
<g><path style="opacity:1" fill="#99877c" d="M 3.5,8.5 C 5.41467,8.21552 7.08134,8.54885 8.5,9.5C 6.89578,10.287 6.22911,11.6203 6.5,13.5C 5.27935,12.9717 4.11268,12.305 3,11.5C 1.12555,14.1904 1.95889,15.8571 5.5,16.5C 6.45482,21.8199 9.12149,22.8199 13.5,19.5C 15.4086,20.3482 17.4086,20.6816 19.5,20.5C 18.3646,22.2132 16.698,22.8799 14.5,22.5C 10.7492,22.3167 6.74923,22.3167 2.5,22.5C 1.5,21.8333 0.5,21.1667 -0.5,20.5C -0.5,17.5 -0.5,14.5 -0.5,11.5C 0.833333,10.5 2.16667,9.5 3.5,8.5 Z"/></g>
<g><path style="opacity:1" fill="#e7e3e1" d="M 18.5,11.5 C 19.4345,12.5676 19.7678,13.901 19.5,15.5C 20.8333,17.1667 20.8333,18.8333 19.5,20.5C 17.4086,20.6816 15.4086,20.3482 13.5,19.5C 9.12149,22.8199 6.45482,21.8199 5.5,16.5C 8.70363,15.56 11.3703,13.8934 13.5,11.5C 14.7422,9.48918 16.4089,9.48918 18.5,11.5 Z"/></g>
<g><path style="opacity:1" fill="#fefffe" d="M 6.5,13.5 C 5.89022,14.391 5.55688,15.391 5.5,16.5C 1.95889,15.8571 1.12555,14.1904 3,11.5C 4.11268,12.305 5.27935,12.9717 6.5,13.5 Z"/></g>
<g><path style="opacity:1" fill="#000001" d="M 14.5,12.5 C 15.2389,12.369 15.9056,12.5357 16.5,13C 15.1667,13.6667 15.1667,14.3333 16.5,15C 14.9387,15.1881 14.272,14.3547 14.5,12.5 Z"/></g>
<g><path style="opacity:1" fill="#1d1b1a" d="M 9.5,15.5 C 10.9778,15.238 12.3112,15.5713 13.5,16.5C 12.6798,18.1112 11.3464,18.7778 9.5,18.5C 9.5,17.5 9.5,16.5 9.5,15.5 Z"/></g>
<g><path style="opacity:1" fill="#000001" d="M 15.5,16.5 C 17.6456,16.6964 17.8122,17.6964 16,19.5C 15.5172,18.552 15.3505,17.552 15.5,16.5 Z"/></g>
<g><path style="opacity:1" fill="#3b3632" d="M 19.5,15.5 C 20.5,16.1667 21.5,16.8333 22.5,17.5C 22.5,18.8333 22.5,20.1667 22.5,21.5C 21.5,21.8333 20.8333,22.5 20.5,23.5C 18.5,23.5 16.5,23.5 14.5,23.5C 14.5,23.1667 14.5,22.8333 14.5,22.5C 16.698,22.8799 18.3646,22.2132 19.5,20.5C 20.8333,18.8333 20.8333,17.1667 19.5,15.5 Z"/></g>
<g><path style="opacity:1" fill="#000001" d="M 14.5,22.5 C 13.8333,22.5 13.5,22.8333 13.5,23.5C 9.83333,23.5 6.16667,23.5 2.5,23.5C 2.5,23.1667 2.5,22.8333 2.5,22.5C 6.74923,22.3167 10.7492,22.3167 14.5,22.5 Z"/></g>
</svg>
