<?xml version="1.0" encoding="UTF-8"?>
<!DOCTYPE svg PUBLIC "-//W3C//DTD SVG 1.1//EN" "http://www.w3.org/Graphics/SVG/1.1/DTD/svg11.dtd">
<svg xmlns="http://www.w3.org/2000/svg" version="1.1" width="18px" height="22px" style="shape-rendering:geometricPrecision; text-rendering:geometricPrecision; image-rendering:optimizeQuality; fill-rule:evenodd; clip-rule:evenodd" xmlns:xlink="http://www.w3.org/1999/xlink">
<g><path style="opacity:1" fill="#000001" d="M 4.5,-0.5 C 7.16667,-0.5 9.83333,-0.5 12.5,-0.5C 13.9661,1.71625 15.6327,3.71625 17.5,5.5C 17.5,7.16667 17.5,8.83333 17.5,10.5C 16.1667,11.1667 14.8333,11.8333 13.5,12.5C 13.2969,14.0443 12.6302,15.3777 11.5,16.5C 12.9501,17.8498 13.6168,19.5165 13.5,21.5C 10.1667,21.5 6.83333,21.5 3.5,21.5C 4.82637,18.999 5.32637,16.3323 5,13.5C 3.41671,12.0289 1.58337,11.0289 -0.5,10.5C -0.5,8.5 -0.5,6.5 -0.5,4.5C 1.5,3.16667 3.16667,1.5 4.5,-0.5 Z"/></g>
<g><path style="opacity:1" fill="#096c01" d="M 6.5,0.5 C 6.57735,1.74975 7.24402,2.58309 8.5,3C 6.92552,3.33573 5.59219,4.16906 4.5,5.5C 6.34686,6.83036 7.84686,6.49703 9,4.5C 9.91471,5.32791 10.5814,6.32791 11,7.5C 12.5545,5.07279 13.7211,5.07279 14.5,7.5C 12.5291,8.5096 11.0291,9.84294 10,11.5C 8.71626,10.4281 8.38293,9.09475 9,7.5C 7.95627,8.62261 7.28961,9.95594 7,11.5C 6.16667,10.5 5.33333,9.5 4.5,8.5C 3.53705,8.96983 3.53705,9.6365 4.5,10.5C 2.05227,10.9153 0.718934,9.91533 0.5,7.5C 1.77202,4.55995 3.77202,2.22662 6.5,0.5 Z"/></g>
<g><path style="opacity:1" fill="#01b500" d="M 6.5,0.5 C 8.19919,0.339822 9.86586,0.506489 11.5,1C 13.9248,2.76326 15.5915,5.09659 16.5,8C 16.2517,9.74911 15.2517,10.5824 13.5,10.5C 14.1098,9.60895 14.4431,8.60895 14.5,7.5C 13.7211,5.07279 12.5545,5.07279 11,7.5C 10.5814,6.32791 9.91471,5.32791 9,4.5C 7.84686,6.49703 6.34686,6.83036 4.5,5.5C 5.59219,4.16906 6.92552,3.33573 8.5,3C 7.24402,2.58309 6.57735,1.74975 6.5,0.5 Z"/></g>
<g><path style="opacity:1" fill="#59380b" d="M 14.5,7.5 C 14.4431,8.60895 14.1098,9.60895 13.5,10.5C 13.5,11.1667 13.5,11.8333 13.5,12.5C 10.0271,14.5628 9.6938,17.0628 12.5,20C 9.83333,20.6667 7.16667,20.6667 4.5,20C 7.11187,16.8359 7.11187,13.6693 4.5,10.5C 3.53705,9.6365 3.53705,8.96983 4.5,8.5C 5.33333,9.5 6.16667,10.5 7,11.5C 7.28961,9.95594 7.95627,8.62261 9,7.5C 8.38293,9.09475 8.71626,10.4281 10,11.5C 11.0291,9.84294 12.5291,8.5096 14.5,7.5 Z"/></g>
</svg>
